G04 MADE WITH FRITZING*
G04 WWW.FRITZING.ORG*
G04 DOUBLE SIDED*
G04 HOLES PLATED*
G04 CONTOUR ON CENTER OF CONTOUR VECTOR*
%ASAXBY*%
%FSLAX23Y23*%
%MOIN*%
%OFA0B0*%
%SFA1.0B1.0*%
%ADD10C,0.039370*%
%ADD11C,0.078000*%
%ADD12C,0.074000*%
%ADD13C,0.138425*%
%ADD14C,0.098425*%
%ADD15C,0.070000*%
%ADD16C,0.047559*%
%ADD17R,0.098425X0.098425*%
%ADD18C,0.024000*%
%ADD19R,0.001000X0.001000*%
%LNCOPPER1*%
G90*
G70*
G54D10*
X1488Y1298D03*
X1888Y1098D03*
X1288Y98D03*
X1987Y398D03*
X1690Y398D03*
X889Y496D03*
X590Y1338D03*
G54D11*
X2134Y1198D03*
X2134Y1098D03*
X2134Y998D03*
X2134Y898D03*
X2134Y798D03*
X2134Y698D03*
X1088Y298D03*
X1188Y298D03*
X1288Y298D03*
X1388Y298D03*
G54D10*
X1588Y1698D03*
X1588Y1498D03*
G54D11*
X188Y298D03*
X288Y298D03*
X388Y298D03*
X488Y298D03*
X588Y298D03*
X688Y298D03*
X788Y298D03*
X888Y298D03*
G54D12*
X1788Y1598D03*
X1788Y1698D03*
X1788Y1798D03*
X1788Y1898D03*
X1788Y1998D03*
X1788Y2098D03*
X1388Y698D03*
X1388Y798D03*
X1388Y898D03*
X1388Y998D03*
X1388Y1098D03*
X1388Y1198D03*
X843Y763D03*
X943Y763D03*
X433Y763D03*
X533Y763D03*
X1288Y648D03*
X1188Y648D03*
X1088Y648D03*
X988Y648D03*
X888Y648D03*
X788Y648D03*
X688Y648D03*
X588Y648D03*
X488Y648D03*
X388Y648D03*
X288Y648D03*
X188Y648D03*
X188Y1248D03*
X288Y1248D03*
X388Y1248D03*
X488Y1248D03*
X588Y1248D03*
X688Y1248D03*
X788Y1248D03*
X888Y1248D03*
X988Y1248D03*
X1088Y1248D03*
X1188Y1248D03*
X1288Y1248D03*
G54D13*
X838Y2098D03*
G54D14*
X234Y1964D03*
G54D13*
X238Y2098D03*
G54D15*
X688Y2098D03*
G54D16*
X344Y1953D03*
G54D15*
X588Y2098D03*
X388Y2098D03*
X488Y2098D03*
G54D13*
X838Y1548D03*
X238Y1548D03*
G54D16*
X344Y1693D03*
G54D14*
X234Y1681D03*
G54D11*
X2388Y1298D03*
X2288Y1298D03*
X2688Y1298D03*
X2788Y1298D03*
X2888Y1298D03*
X2988Y1298D03*
X3088Y1298D03*
X3188Y1298D03*
G54D17*
X234Y1964D03*
X234Y1681D03*
G54D18*
X289Y499D02*
X289Y617D01*
D02*
X587Y398D02*
X390Y499D01*
D02*
X390Y499D02*
X389Y617D01*
D02*
X588Y328D02*
X587Y398D01*
D02*
X375Y325D02*
X289Y499D01*
D02*
X1474Y1310D02*
X1398Y1376D01*
D02*
X293Y1382D02*
X189Y1333D01*
D02*
X1787Y198D02*
X1888Y299D01*
D02*
X189Y198D02*
X1787Y198D01*
D02*
X1888Y299D02*
X1888Y1079D01*
D02*
X1398Y1376D02*
X293Y1382D01*
D02*
X189Y1333D02*
X189Y1279D01*
D02*
X189Y268D02*
X189Y198D01*
D02*
X1087Y497D02*
X1171Y622D01*
D02*
X908Y496D02*
X1087Y497D01*
D02*
X889Y398D02*
X1671Y398D01*
D02*
X2088Y499D02*
X2489Y499D01*
D02*
X2489Y499D02*
X2589Y599D01*
D02*
X2589Y2096D02*
X2500Y2243D01*
D02*
X2001Y412D02*
X2088Y499D01*
D02*
X2589Y599D02*
X2589Y2096D01*
D02*
X2500Y2243D02*
X764Y2239D01*
D02*
X764Y2239D02*
X703Y2125D01*
D02*
X810Y319D02*
X889Y398D01*
D02*
X985Y1332D02*
X609Y1337D01*
D02*
X987Y1279D02*
X985Y1332D01*
D02*
X1686Y599D02*
X1587Y496D01*
D02*
X1688Y1598D02*
X1686Y599D01*
D02*
X787Y1799D02*
X690Y1898D01*
D02*
X987Y1799D02*
X787Y1799D01*
D02*
X1766Y1676D02*
X1688Y1598D01*
D02*
X1389Y1597D02*
X987Y1799D01*
D02*
X690Y1898D02*
X689Y2067D01*
D02*
X1688Y1598D02*
X1389Y1597D01*
D02*
X1389Y499D02*
X1306Y622D01*
D02*
X1587Y496D02*
X1389Y499D01*
D02*
X89Y798D02*
X189Y897D01*
D02*
X89Y98D02*
X89Y798D01*
D02*
X189Y897D02*
X788Y898D01*
D02*
X788Y898D02*
X832Y791D01*
D02*
X1269Y98D02*
X89Y98D01*
D02*
X1588Y1479D02*
X1588Y1196D01*
D02*
X1690Y1799D02*
X1602Y1711D01*
D02*
X1588Y1196D02*
X1416Y1111D01*
D02*
X1757Y1798D02*
X1690Y1799D01*
G54D19*
X325Y1990D02*
X362Y1990D01*
X325Y1989D02*
X362Y1989D01*
X325Y1988D02*
X362Y1988D01*
X325Y1987D02*
X362Y1987D01*
X325Y1986D02*
X362Y1986D01*
X325Y1985D02*
X362Y1985D01*
X325Y1984D02*
X362Y1984D01*
X325Y1983D02*
X362Y1983D01*
X325Y1982D02*
X362Y1982D01*
X325Y1981D02*
X362Y1981D01*
X325Y1980D02*
X362Y1980D01*
X325Y1979D02*
X362Y1979D01*
X325Y1978D02*
X362Y1978D01*
X325Y1977D02*
X362Y1977D01*
X325Y1976D02*
X362Y1976D01*
X325Y1975D02*
X362Y1975D01*
X325Y1974D02*
X362Y1974D01*
X325Y1973D02*
X362Y1973D01*
X325Y1972D02*
X362Y1972D01*
X325Y1971D02*
X338Y1971D01*
X348Y1971D02*
X362Y1971D01*
X325Y1970D02*
X335Y1970D01*
X351Y1970D02*
X362Y1970D01*
X325Y1969D02*
X333Y1969D01*
X353Y1969D02*
X362Y1969D01*
X325Y1968D02*
X332Y1968D01*
X355Y1968D02*
X362Y1968D01*
X325Y1967D02*
X331Y1967D01*
X356Y1967D02*
X362Y1967D01*
X325Y1966D02*
X329Y1966D01*
X357Y1966D02*
X362Y1966D01*
X325Y1965D02*
X329Y1965D01*
X358Y1965D02*
X362Y1965D01*
X325Y1964D02*
X328Y1964D01*
X359Y1964D02*
X362Y1964D01*
X325Y1963D02*
X327Y1963D01*
X360Y1963D02*
X362Y1963D01*
X325Y1962D02*
X326Y1962D01*
X360Y1962D02*
X362Y1962D01*
X325Y1961D02*
X326Y1961D01*
X361Y1961D02*
X362Y1961D01*
X325Y1960D02*
X325Y1960D01*
X361Y1960D02*
X362Y1960D01*
X325Y1959D02*
X325Y1959D01*
X361Y1959D02*
X362Y1959D01*
X325Y1958D02*
X325Y1958D01*
X362Y1958D02*
X362Y1958D01*
X325Y1948D02*
X325Y1948D01*
X362Y1948D02*
X362Y1948D01*
X325Y1947D02*
X325Y1947D01*
X362Y1947D02*
X362Y1947D01*
X325Y1946D02*
X325Y1946D01*
X361Y1946D02*
X362Y1946D01*
X325Y1945D02*
X326Y1945D01*
X361Y1945D02*
X362Y1945D01*
X325Y1944D02*
X326Y1944D01*
X360Y1944D02*
X362Y1944D01*
X325Y1943D02*
X327Y1943D01*
X360Y1943D02*
X362Y1943D01*
X325Y1942D02*
X328Y1942D01*
X359Y1942D02*
X362Y1942D01*
X325Y1941D02*
X328Y1941D01*
X358Y1941D02*
X362Y1941D01*
X325Y1940D02*
X329Y1940D01*
X357Y1940D02*
X362Y1940D01*
X325Y1939D02*
X330Y1939D01*
X356Y1939D02*
X362Y1939D01*
X325Y1938D02*
X331Y1938D01*
X355Y1938D02*
X362Y1938D01*
X325Y1937D02*
X333Y1937D01*
X354Y1937D02*
X362Y1937D01*
X325Y1936D02*
X335Y1936D01*
X352Y1936D02*
X362Y1936D01*
X325Y1935D02*
X337Y1935D01*
X349Y1935D02*
X362Y1935D01*
X325Y1711D02*
X338Y1711D01*
X349Y1711D02*
X362Y1711D01*
X325Y1710D02*
X335Y1710D01*
X352Y1710D02*
X362Y1710D01*
X325Y1709D02*
X333Y1709D01*
X354Y1709D02*
X362Y1709D01*
X325Y1708D02*
X332Y1708D01*
X355Y1708D02*
X362Y1708D01*
X325Y1707D02*
X330Y1707D01*
X356Y1707D02*
X362Y1707D01*
X325Y1706D02*
X329Y1706D01*
X357Y1706D02*
X362Y1706D01*
X325Y1705D02*
X328Y1705D01*
X358Y1705D02*
X362Y1705D01*
X325Y1704D02*
X328Y1704D01*
X359Y1704D02*
X362Y1704D01*
X325Y1703D02*
X327Y1703D01*
X360Y1703D02*
X362Y1703D01*
X325Y1702D02*
X326Y1702D01*
X360Y1702D02*
X362Y1702D01*
X325Y1701D02*
X326Y1701D01*
X361Y1701D02*
X362Y1701D01*
X325Y1700D02*
X325Y1700D01*
X361Y1700D02*
X362Y1700D01*
X325Y1699D02*
X325Y1699D01*
X362Y1699D02*
X362Y1699D01*
X325Y1698D02*
X325Y1698D01*
X362Y1698D02*
X362Y1698D01*
X325Y1688D02*
X325Y1688D01*
X362Y1688D02*
X362Y1688D01*
X325Y1687D02*
X325Y1687D01*
X361Y1687D02*
X362Y1687D01*
X325Y1686D02*
X325Y1686D01*
X361Y1686D02*
X362Y1686D01*
X325Y1685D02*
X326Y1685D01*
X361Y1685D02*
X362Y1685D01*
X325Y1684D02*
X326Y1684D01*
X360Y1684D02*
X362Y1684D01*
X325Y1683D02*
X327Y1683D01*
X360Y1683D02*
X362Y1683D01*
X325Y1682D02*
X328Y1682D01*
X359Y1682D02*
X362Y1682D01*
X325Y1681D02*
X329Y1681D01*
X358Y1681D02*
X362Y1681D01*
X325Y1680D02*
X329Y1680D01*
X357Y1680D02*
X362Y1680D01*
X325Y1679D02*
X330Y1679D01*
X356Y1679D02*
X362Y1679D01*
X325Y1678D02*
X332Y1678D01*
X355Y1678D02*
X362Y1678D01*
X325Y1677D02*
X333Y1677D01*
X353Y1677D02*
X362Y1677D01*
X325Y1676D02*
X335Y1676D01*
X352Y1676D02*
X362Y1676D01*
X325Y1675D02*
X338Y1675D01*
X349Y1675D02*
X362Y1675D01*
X325Y1674D02*
X362Y1674D01*
X325Y1673D02*
X362Y1673D01*
X325Y1672D02*
X362Y1672D01*
X325Y1671D02*
X362Y1671D01*
X325Y1670D02*
X362Y1670D01*
X325Y1669D02*
X362Y1669D01*
X325Y1668D02*
X362Y1668D01*
X325Y1667D02*
X362Y1667D01*
X325Y1666D02*
X362Y1666D01*
X325Y1665D02*
X362Y1665D01*
X325Y1664D02*
X362Y1664D01*
X325Y1663D02*
X362Y1663D01*
X325Y1662D02*
X362Y1662D01*
X325Y1661D02*
X362Y1661D01*
X325Y1660D02*
X362Y1660D01*
X325Y1659D02*
X362Y1659D01*
X325Y1658D02*
X362Y1658D01*
X325Y1657D02*
X362Y1657D01*
X325Y1656D02*
X362Y1656D01*
X2872Y416D02*
X2957Y416D01*
X3045Y416D02*
X3096Y416D01*
X3210Y416D02*
X3298Y416D01*
X3376Y416D02*
X3427Y416D01*
X2872Y415D02*
X2961Y415D01*
X3043Y415D02*
X3100Y415D01*
X3208Y415D02*
X3301Y415D01*
X3374Y415D02*
X3431Y415D01*
X2872Y414D02*
X2963Y414D01*
X3041Y414D02*
X3103Y414D01*
X3207Y414D02*
X3303Y414D01*
X3372Y414D02*
X3434Y414D01*
X2872Y413D02*
X2966Y413D01*
X3040Y413D02*
X3105Y413D01*
X3206Y413D02*
X3305Y413D01*
X3371Y413D02*
X3436Y413D01*
X2872Y412D02*
X2967Y412D01*
X3039Y412D02*
X3107Y412D01*
X3205Y412D02*
X3306Y412D01*
X3370Y412D02*
X3438Y412D01*
X2872Y411D02*
X2969Y411D01*
X3039Y411D02*
X3109Y411D01*
X3204Y411D02*
X3307Y411D01*
X3370Y411D02*
X3440Y411D01*
X2872Y410D02*
X2970Y410D01*
X3038Y410D02*
X3110Y410D01*
X3204Y410D02*
X3308Y410D01*
X3369Y410D02*
X3441Y410D01*
X2872Y409D02*
X2972Y409D01*
X3038Y409D02*
X3112Y409D01*
X3203Y409D02*
X3309Y409D01*
X3369Y409D02*
X3442Y409D01*
X2872Y408D02*
X2973Y408D01*
X3037Y408D02*
X3113Y408D01*
X3203Y408D02*
X3310Y408D01*
X3368Y408D02*
X3444Y408D01*
X2872Y407D02*
X2974Y407D01*
X3037Y407D02*
X3114Y407D01*
X3203Y407D02*
X3311Y407D01*
X3368Y407D02*
X3445Y407D01*
X2872Y406D02*
X2975Y406D01*
X3037Y406D02*
X3115Y406D01*
X3203Y406D02*
X3312Y406D01*
X3368Y406D02*
X3446Y406D01*
X2872Y405D02*
X2976Y405D01*
X3037Y405D02*
X3116Y405D01*
X3202Y405D02*
X3313Y405D01*
X3368Y405D02*
X3447Y405D01*
X2872Y404D02*
X2977Y404D01*
X3037Y404D02*
X3117Y404D01*
X3203Y404D02*
X3313Y404D01*
X3368Y404D02*
X3448Y404D01*
X2872Y403D02*
X2978Y403D01*
X3037Y403D02*
X3118Y403D01*
X3203Y403D02*
X3314Y403D01*
X3368Y403D02*
X3448Y403D01*
X2872Y402D02*
X2978Y402D01*
X3037Y402D02*
X3118Y402D01*
X3203Y402D02*
X3314Y402D01*
X3368Y402D02*
X3449Y402D01*
X2872Y401D02*
X2979Y401D01*
X3038Y401D02*
X3119Y401D01*
X3203Y401D02*
X3314Y401D01*
X3369Y401D02*
X3450Y401D01*
X2872Y400D02*
X2980Y400D01*
X3038Y400D02*
X3120Y400D01*
X3204Y400D02*
X3315Y400D01*
X3369Y400D02*
X3450Y400D01*
X2872Y399D02*
X2980Y399D01*
X3039Y399D02*
X3120Y399D01*
X3204Y399D02*
X3315Y399D01*
X3370Y399D02*
X3451Y399D01*
X2872Y398D02*
X2981Y398D01*
X3039Y398D02*
X3121Y398D01*
X3205Y398D02*
X3315Y398D01*
X3370Y398D02*
X3452Y398D01*
X2872Y397D02*
X2982Y397D01*
X3040Y397D02*
X3121Y397D01*
X3206Y397D02*
X3316Y397D01*
X3371Y397D02*
X3452Y397D01*
X2872Y396D02*
X2982Y396D01*
X3041Y396D02*
X3122Y396D01*
X3207Y396D02*
X3316Y396D01*
X3372Y396D02*
X3453Y396D01*
X2872Y395D02*
X2983Y395D01*
X3043Y395D02*
X3122Y395D01*
X3208Y395D02*
X3316Y395D01*
X3373Y395D02*
X3453Y395D01*
X2872Y394D02*
X2983Y394D01*
X3045Y394D02*
X3123Y394D01*
X3210Y394D02*
X3316Y394D01*
X3376Y394D02*
X3454Y394D01*
X2872Y393D02*
X2894Y393D01*
X2954Y393D02*
X2983Y393D01*
X3060Y393D02*
X3082Y393D01*
X3094Y393D02*
X3123Y393D01*
X3294Y393D02*
X3316Y393D01*
X3390Y393D02*
X3413Y393D01*
X3425Y393D02*
X3454Y393D01*
X2872Y392D02*
X2894Y392D01*
X2956Y392D02*
X2984Y392D01*
X3060Y392D02*
X3082Y392D01*
X3097Y392D02*
X3124Y392D01*
X3294Y392D02*
X3316Y392D01*
X3391Y392D02*
X3413Y392D01*
X3428Y392D02*
X3455Y392D01*
X2872Y391D02*
X2894Y391D01*
X2958Y391D02*
X2984Y391D01*
X3060Y391D02*
X3082Y391D01*
X3098Y391D02*
X3124Y391D01*
X3294Y391D02*
X3316Y391D01*
X3391Y391D02*
X3413Y391D01*
X3429Y391D02*
X3455Y391D01*
X2872Y390D02*
X2894Y390D01*
X2959Y390D02*
X2984Y390D01*
X3060Y390D02*
X3082Y390D01*
X3099Y390D02*
X3125Y390D01*
X3294Y390D02*
X3316Y390D01*
X3391Y390D02*
X3413Y390D01*
X3430Y390D02*
X3456Y390D01*
X2872Y389D02*
X2894Y389D01*
X2960Y389D02*
X2984Y389D01*
X3060Y389D02*
X3082Y389D01*
X3100Y389D02*
X3125Y389D01*
X3294Y389D02*
X3316Y389D01*
X3391Y389D02*
X3413Y389D01*
X3431Y389D02*
X3456Y389D01*
X2872Y388D02*
X2894Y388D01*
X2961Y388D02*
X2985Y388D01*
X3060Y388D02*
X3082Y388D01*
X3101Y388D02*
X3126Y388D01*
X3294Y388D02*
X3316Y388D01*
X3391Y388D02*
X3413Y388D01*
X3431Y388D02*
X3457Y388D01*
X2872Y387D02*
X2894Y387D01*
X2961Y387D02*
X2985Y387D01*
X3060Y387D02*
X3082Y387D01*
X3101Y387D02*
X3126Y387D01*
X3294Y387D02*
X3316Y387D01*
X3391Y387D02*
X3413Y387D01*
X3432Y387D02*
X3457Y387D01*
X2872Y386D02*
X2894Y386D01*
X2962Y386D02*
X2985Y386D01*
X3060Y386D02*
X3082Y386D01*
X3102Y386D02*
X3127Y386D01*
X3294Y386D02*
X3316Y386D01*
X3391Y386D02*
X3413Y386D01*
X3433Y386D02*
X3458Y386D01*
X2872Y385D02*
X2894Y385D01*
X2962Y385D02*
X2985Y385D01*
X3060Y385D02*
X3082Y385D01*
X3102Y385D02*
X3127Y385D01*
X3294Y385D02*
X3316Y385D01*
X3391Y385D02*
X3413Y385D01*
X3433Y385D02*
X3458Y385D01*
X2872Y384D02*
X2894Y384D01*
X2963Y384D02*
X2985Y384D01*
X3060Y384D02*
X3082Y384D01*
X3103Y384D02*
X3128Y384D01*
X3294Y384D02*
X3316Y384D01*
X3391Y384D02*
X3413Y384D01*
X3434Y384D02*
X3459Y384D01*
X2872Y383D02*
X2894Y383D01*
X2963Y383D02*
X2985Y383D01*
X3060Y383D02*
X3082Y383D01*
X3103Y383D02*
X3128Y383D01*
X3294Y383D02*
X3316Y383D01*
X3391Y383D02*
X3413Y383D01*
X3434Y383D02*
X3459Y383D01*
X2872Y382D02*
X2894Y382D01*
X2963Y382D02*
X2985Y382D01*
X3060Y382D02*
X3082Y382D01*
X3104Y382D02*
X3129Y382D01*
X3294Y382D02*
X3316Y382D01*
X3391Y382D02*
X3413Y382D01*
X3435Y382D02*
X3460Y382D01*
X2872Y381D02*
X2894Y381D01*
X2963Y381D02*
X2985Y381D01*
X3060Y381D02*
X3082Y381D01*
X3104Y381D02*
X3129Y381D01*
X3294Y381D02*
X3316Y381D01*
X3391Y381D02*
X3413Y381D01*
X3435Y381D02*
X3460Y381D01*
X2872Y380D02*
X2894Y380D01*
X2963Y380D02*
X2985Y380D01*
X3060Y380D02*
X3082Y380D01*
X3105Y380D02*
X3130Y380D01*
X3294Y380D02*
X3316Y380D01*
X3391Y380D02*
X3413Y380D01*
X3436Y380D02*
X3461Y380D01*
X2872Y379D02*
X2894Y379D01*
X2963Y379D02*
X2985Y379D01*
X3060Y379D02*
X3082Y379D01*
X3105Y379D02*
X3130Y379D01*
X3294Y379D02*
X3316Y379D01*
X3391Y379D02*
X3413Y379D01*
X3436Y379D02*
X3461Y379D01*
X2872Y378D02*
X2894Y378D01*
X2963Y378D02*
X2985Y378D01*
X3060Y378D02*
X3082Y378D01*
X3106Y378D02*
X3131Y378D01*
X3294Y378D02*
X3316Y378D01*
X3391Y378D02*
X3413Y378D01*
X3437Y378D02*
X3462Y378D01*
X2872Y377D02*
X2894Y377D01*
X2963Y377D02*
X2985Y377D01*
X3060Y377D02*
X3082Y377D01*
X3106Y377D02*
X3131Y377D01*
X3294Y377D02*
X3316Y377D01*
X3391Y377D02*
X3413Y377D01*
X3437Y377D02*
X3462Y377D01*
X2872Y376D02*
X2894Y376D01*
X2963Y376D02*
X2985Y376D01*
X3060Y376D02*
X3082Y376D01*
X3107Y376D02*
X3132Y376D01*
X3294Y376D02*
X3316Y376D01*
X3391Y376D02*
X3413Y376D01*
X3438Y376D02*
X3463Y376D01*
X2872Y375D02*
X2894Y375D01*
X2963Y375D02*
X2985Y375D01*
X3060Y375D02*
X3082Y375D01*
X3107Y375D02*
X3132Y375D01*
X3294Y375D02*
X3316Y375D01*
X3391Y375D02*
X3413Y375D01*
X3438Y375D02*
X3463Y375D01*
X2872Y374D02*
X2894Y374D01*
X2963Y374D02*
X2985Y374D01*
X3060Y374D02*
X3082Y374D01*
X3108Y374D02*
X3133Y374D01*
X3294Y374D02*
X3316Y374D01*
X3391Y374D02*
X3413Y374D01*
X3439Y374D02*
X3464Y374D01*
X2872Y373D02*
X2894Y373D01*
X2963Y373D02*
X2985Y373D01*
X3060Y373D02*
X3082Y373D01*
X3108Y373D02*
X3133Y373D01*
X3294Y373D02*
X3316Y373D01*
X3391Y373D02*
X3413Y373D01*
X3439Y373D02*
X3464Y373D01*
X2872Y372D02*
X2894Y372D01*
X2963Y372D02*
X2985Y372D01*
X3060Y372D02*
X3082Y372D01*
X3109Y372D02*
X3134Y372D01*
X3294Y372D02*
X3316Y372D01*
X3391Y372D02*
X3413Y372D01*
X3440Y372D02*
X3465Y372D01*
X2872Y371D02*
X2894Y371D01*
X2963Y371D02*
X2985Y371D01*
X3060Y371D02*
X3082Y371D01*
X3109Y371D02*
X3134Y371D01*
X3294Y371D02*
X3316Y371D01*
X3391Y371D02*
X3413Y371D01*
X3440Y371D02*
X3465Y371D01*
X2872Y370D02*
X2894Y370D01*
X2963Y370D02*
X2985Y370D01*
X3060Y370D02*
X3082Y370D01*
X3110Y370D02*
X3135Y370D01*
X3294Y370D02*
X3316Y370D01*
X3391Y370D02*
X3413Y370D01*
X3441Y370D02*
X3466Y370D01*
X2872Y369D02*
X2894Y369D01*
X2963Y369D02*
X2985Y369D01*
X3060Y369D02*
X3082Y369D01*
X3110Y369D02*
X3135Y369D01*
X3294Y369D02*
X3316Y369D01*
X3391Y369D02*
X3413Y369D01*
X3441Y369D02*
X3466Y369D01*
X2872Y368D02*
X2894Y368D01*
X2963Y368D02*
X2985Y368D01*
X3060Y368D02*
X3082Y368D01*
X3111Y368D02*
X3136Y368D01*
X3294Y368D02*
X3316Y368D01*
X3391Y368D02*
X3413Y368D01*
X3442Y368D02*
X3467Y368D01*
X2872Y367D02*
X2894Y367D01*
X2963Y367D02*
X2985Y367D01*
X3060Y367D02*
X3082Y367D01*
X3111Y367D02*
X3136Y367D01*
X3294Y367D02*
X3316Y367D01*
X3391Y367D02*
X3413Y367D01*
X3442Y367D02*
X3467Y367D01*
X2872Y366D02*
X2894Y366D01*
X2963Y366D02*
X2985Y366D01*
X3060Y366D02*
X3082Y366D01*
X3112Y366D02*
X3137Y366D01*
X3294Y366D02*
X3316Y366D01*
X3391Y366D02*
X3413Y366D01*
X3443Y366D02*
X3468Y366D01*
X2872Y365D02*
X2894Y365D01*
X2963Y365D02*
X2985Y365D01*
X3060Y365D02*
X3082Y365D01*
X3112Y365D02*
X3137Y365D01*
X3294Y365D02*
X3316Y365D01*
X3391Y365D02*
X3413Y365D01*
X3443Y365D02*
X3468Y365D01*
X2872Y364D02*
X2894Y364D01*
X2963Y364D02*
X2985Y364D01*
X3060Y364D02*
X3082Y364D01*
X3113Y364D02*
X3138Y364D01*
X3294Y364D02*
X3316Y364D01*
X3391Y364D02*
X3413Y364D01*
X3444Y364D02*
X3469Y364D01*
X2872Y363D02*
X2894Y363D01*
X2963Y363D02*
X2985Y363D01*
X3060Y363D02*
X3082Y363D01*
X3114Y363D02*
X3138Y363D01*
X3294Y363D02*
X3316Y363D01*
X3391Y363D02*
X3413Y363D01*
X3444Y363D02*
X3469Y363D01*
X2872Y362D02*
X2894Y362D01*
X2963Y362D02*
X2985Y362D01*
X3060Y362D02*
X3082Y362D01*
X3114Y362D02*
X3139Y362D01*
X3294Y362D02*
X3316Y362D01*
X3391Y362D02*
X3413Y362D01*
X3445Y362D02*
X3470Y362D01*
X2872Y361D02*
X2894Y361D01*
X2963Y361D02*
X2985Y361D01*
X3060Y361D02*
X3082Y361D01*
X3115Y361D02*
X3139Y361D01*
X3294Y361D02*
X3316Y361D01*
X3391Y361D02*
X3413Y361D01*
X3445Y361D02*
X3470Y361D01*
X2872Y360D02*
X2894Y360D01*
X2963Y360D02*
X2985Y360D01*
X3060Y360D02*
X3082Y360D01*
X3115Y360D02*
X3140Y360D01*
X3294Y360D02*
X3316Y360D01*
X3391Y360D02*
X3413Y360D01*
X3446Y360D02*
X3471Y360D01*
X2872Y359D02*
X2894Y359D01*
X2963Y359D02*
X2985Y359D01*
X3060Y359D02*
X3082Y359D01*
X3116Y359D02*
X3141Y359D01*
X3294Y359D02*
X3316Y359D01*
X3391Y359D02*
X3413Y359D01*
X3446Y359D02*
X3471Y359D01*
X2872Y358D02*
X2894Y358D01*
X2963Y358D02*
X2985Y358D01*
X3060Y358D02*
X3082Y358D01*
X3116Y358D02*
X3141Y358D01*
X3294Y358D02*
X3316Y358D01*
X3391Y358D02*
X3413Y358D01*
X3447Y358D02*
X3472Y358D01*
X2872Y357D02*
X2894Y357D01*
X2963Y357D02*
X2985Y357D01*
X3060Y357D02*
X3082Y357D01*
X3117Y357D02*
X3142Y357D01*
X3294Y357D02*
X3316Y357D01*
X3391Y357D02*
X3413Y357D01*
X3447Y357D02*
X3472Y357D01*
X2872Y356D02*
X2894Y356D01*
X2963Y356D02*
X2985Y356D01*
X3060Y356D02*
X3082Y356D01*
X3117Y356D02*
X3142Y356D01*
X3294Y356D02*
X3316Y356D01*
X3391Y356D02*
X3413Y356D01*
X3448Y356D02*
X3473Y356D01*
X2872Y355D02*
X2894Y355D01*
X2963Y355D02*
X2985Y355D01*
X3060Y355D02*
X3082Y355D01*
X3118Y355D02*
X3143Y355D01*
X3294Y355D02*
X3316Y355D01*
X3391Y355D02*
X3413Y355D01*
X3448Y355D02*
X3473Y355D01*
X2872Y354D02*
X2894Y354D01*
X2963Y354D02*
X2985Y354D01*
X3060Y354D02*
X3082Y354D01*
X3118Y354D02*
X3143Y354D01*
X3294Y354D02*
X3316Y354D01*
X3391Y354D02*
X3413Y354D01*
X3449Y354D02*
X3474Y354D01*
X2872Y353D02*
X2894Y353D01*
X2963Y353D02*
X2985Y353D01*
X3060Y353D02*
X3082Y353D01*
X3119Y353D02*
X3144Y353D01*
X3294Y353D02*
X3316Y353D01*
X3391Y353D02*
X3413Y353D01*
X3449Y353D02*
X3474Y353D01*
X2872Y352D02*
X2894Y352D01*
X2963Y352D02*
X2985Y352D01*
X3060Y352D02*
X3082Y352D01*
X3119Y352D02*
X3144Y352D01*
X3294Y352D02*
X3316Y352D01*
X3391Y352D02*
X3413Y352D01*
X3450Y352D02*
X3475Y352D01*
X2872Y351D02*
X2894Y351D01*
X2963Y351D02*
X2985Y351D01*
X3060Y351D02*
X3082Y351D01*
X3120Y351D02*
X3145Y351D01*
X3294Y351D02*
X3316Y351D01*
X3391Y351D02*
X3413Y351D01*
X3450Y351D02*
X3475Y351D01*
X2872Y350D02*
X2894Y350D01*
X2963Y350D02*
X2985Y350D01*
X3060Y350D02*
X3082Y350D01*
X3120Y350D02*
X3145Y350D01*
X3294Y350D02*
X3316Y350D01*
X3391Y350D02*
X3413Y350D01*
X3451Y350D02*
X3476Y350D01*
X2872Y349D02*
X2894Y349D01*
X2963Y349D02*
X2985Y349D01*
X3060Y349D02*
X3082Y349D01*
X3121Y349D02*
X3145Y349D01*
X3294Y349D02*
X3316Y349D01*
X3391Y349D02*
X3413Y349D01*
X3451Y349D02*
X3476Y349D01*
X2872Y348D02*
X2894Y348D01*
X2963Y348D02*
X2985Y348D01*
X3060Y348D02*
X3082Y348D01*
X3121Y348D02*
X3146Y348D01*
X3293Y348D02*
X3316Y348D01*
X3391Y348D02*
X3413Y348D01*
X3452Y348D02*
X3477Y348D01*
X2872Y347D02*
X2894Y347D01*
X2963Y347D02*
X2985Y347D01*
X3060Y347D02*
X3082Y347D01*
X3122Y347D02*
X3146Y347D01*
X3293Y347D02*
X3316Y347D01*
X3391Y347D02*
X3413Y347D01*
X3452Y347D02*
X3477Y347D01*
X2872Y346D02*
X2894Y346D01*
X2963Y346D02*
X2985Y346D01*
X3060Y346D02*
X3082Y346D01*
X3122Y346D02*
X3147Y346D01*
X3293Y346D02*
X3316Y346D01*
X3391Y346D02*
X3413Y346D01*
X3453Y346D02*
X3477Y346D01*
X2872Y345D02*
X2894Y345D01*
X2963Y345D02*
X2985Y345D01*
X3060Y345D02*
X3082Y345D01*
X3123Y345D02*
X3147Y345D01*
X3292Y345D02*
X3315Y345D01*
X3391Y345D02*
X3413Y345D01*
X3453Y345D02*
X3478Y345D01*
X2872Y344D02*
X2894Y344D01*
X2963Y344D02*
X2985Y344D01*
X3060Y344D02*
X3082Y344D01*
X3123Y344D02*
X3147Y344D01*
X3292Y344D02*
X3315Y344D01*
X3391Y344D02*
X3413Y344D01*
X3454Y344D02*
X3478Y344D01*
X2872Y343D02*
X2894Y343D01*
X2963Y343D02*
X2985Y343D01*
X3060Y343D02*
X3082Y343D01*
X3124Y343D02*
X3148Y343D01*
X3291Y343D02*
X3315Y343D01*
X3391Y343D02*
X3413Y343D01*
X3454Y343D02*
X3479Y343D01*
X2872Y342D02*
X2894Y342D01*
X2963Y342D02*
X2985Y342D01*
X3060Y342D02*
X3082Y342D01*
X3124Y342D02*
X3148Y342D01*
X3290Y342D02*
X3315Y342D01*
X3391Y342D02*
X3413Y342D01*
X3455Y342D02*
X3479Y342D01*
X2872Y341D02*
X2894Y341D01*
X2963Y341D02*
X2985Y341D01*
X3060Y341D02*
X3082Y341D01*
X3125Y341D02*
X3148Y341D01*
X3289Y341D02*
X3315Y341D01*
X3391Y341D02*
X3413Y341D01*
X3455Y341D02*
X3479Y341D01*
X2872Y340D02*
X2894Y340D01*
X2963Y340D02*
X2985Y340D01*
X3060Y340D02*
X3082Y340D01*
X3125Y340D02*
X3149Y340D01*
X3287Y340D02*
X3314Y340D01*
X3391Y340D02*
X3413Y340D01*
X3456Y340D02*
X3479Y340D01*
X2872Y339D02*
X2894Y339D01*
X2963Y339D02*
X2985Y339D01*
X3060Y339D02*
X3082Y339D01*
X3126Y339D02*
X3149Y339D01*
X3285Y339D02*
X3314Y339D01*
X3391Y339D02*
X3413Y339D01*
X3456Y339D02*
X3480Y339D01*
X2872Y338D02*
X2894Y338D01*
X2963Y338D02*
X2985Y338D01*
X3060Y338D02*
X3082Y338D01*
X3126Y338D02*
X3149Y338D01*
X3233Y338D02*
X3314Y338D01*
X3391Y338D02*
X3413Y338D01*
X3457Y338D02*
X3480Y338D01*
X2872Y337D02*
X2894Y337D01*
X2962Y337D02*
X2985Y337D01*
X3060Y337D02*
X3082Y337D01*
X3126Y337D02*
X3149Y337D01*
X3231Y337D02*
X3313Y337D01*
X3391Y337D02*
X3413Y337D01*
X3457Y337D02*
X3480Y337D01*
X2872Y336D02*
X2894Y336D01*
X2962Y336D02*
X2985Y336D01*
X3060Y336D02*
X3082Y336D01*
X3127Y336D02*
X3150Y336D01*
X3229Y336D02*
X3313Y336D01*
X3391Y336D02*
X3413Y336D01*
X3458Y336D02*
X3480Y336D01*
X2872Y335D02*
X2894Y335D01*
X2961Y335D02*
X2985Y335D01*
X3060Y335D02*
X3082Y335D01*
X3127Y335D02*
X3150Y335D01*
X3228Y335D02*
X3312Y335D01*
X3391Y335D02*
X3413Y335D01*
X3458Y335D02*
X3480Y335D01*
X2872Y334D02*
X2894Y334D01*
X2961Y334D02*
X2984Y334D01*
X3060Y334D02*
X3082Y334D01*
X3127Y334D02*
X3150Y334D01*
X3228Y334D02*
X3312Y334D01*
X3391Y334D02*
X3413Y334D01*
X3458Y334D02*
X3481Y334D01*
X2872Y333D02*
X2894Y333D01*
X2960Y333D02*
X2984Y333D01*
X3060Y333D02*
X3082Y333D01*
X3128Y333D02*
X3150Y333D01*
X3227Y333D02*
X3311Y333D01*
X3391Y333D02*
X3413Y333D01*
X3458Y333D02*
X3481Y333D01*
X2872Y332D02*
X2894Y332D01*
X2959Y332D02*
X2984Y332D01*
X3060Y332D02*
X3082Y332D01*
X3128Y332D02*
X3150Y332D01*
X3226Y332D02*
X3311Y332D01*
X3391Y332D02*
X3413Y332D01*
X3459Y332D02*
X3481Y332D01*
X2872Y331D02*
X2894Y331D01*
X2958Y331D02*
X2984Y331D01*
X3060Y331D02*
X3082Y331D01*
X3128Y331D02*
X3150Y331D01*
X3226Y331D02*
X3310Y331D01*
X3391Y331D02*
X3413Y331D01*
X3459Y331D02*
X3481Y331D01*
X2872Y330D02*
X2894Y330D01*
X2956Y330D02*
X2983Y330D01*
X3060Y330D02*
X3082Y330D01*
X3128Y330D02*
X3150Y330D01*
X3226Y330D02*
X3309Y330D01*
X3391Y330D02*
X3413Y330D01*
X3459Y330D02*
X3481Y330D01*
X2872Y329D02*
X2894Y329D01*
X2953Y329D02*
X2983Y329D01*
X3060Y329D02*
X3082Y329D01*
X3128Y329D02*
X3150Y329D01*
X3225Y329D02*
X3308Y329D01*
X3391Y329D02*
X3413Y329D01*
X3459Y329D02*
X3481Y329D01*
X2872Y328D02*
X2983Y328D01*
X3060Y328D02*
X3082Y328D01*
X3128Y328D02*
X3150Y328D01*
X3225Y328D02*
X3308Y328D01*
X3391Y328D02*
X3413Y328D01*
X3459Y328D02*
X3481Y328D01*
X2872Y327D02*
X2982Y327D01*
X3060Y327D02*
X3082Y327D01*
X3128Y327D02*
X3150Y327D01*
X3225Y327D02*
X3307Y327D01*
X3391Y327D02*
X3413Y327D01*
X3459Y327D02*
X3481Y327D01*
X2872Y326D02*
X2982Y326D01*
X3060Y326D02*
X3082Y326D01*
X3128Y326D02*
X3150Y326D01*
X3225Y326D02*
X3307Y326D01*
X3391Y326D02*
X3413Y326D01*
X3459Y326D02*
X3481Y326D01*
X2872Y325D02*
X2981Y325D01*
X3060Y325D02*
X3082Y325D01*
X3128Y325D02*
X3150Y325D01*
X3225Y325D02*
X3308Y325D01*
X3391Y325D02*
X3413Y325D01*
X3459Y325D02*
X3481Y325D01*
X2872Y324D02*
X2981Y324D01*
X3060Y324D02*
X3082Y324D01*
X3128Y324D02*
X3150Y324D01*
X3226Y324D02*
X3309Y324D01*
X3391Y324D02*
X3413Y324D01*
X3459Y324D02*
X3481Y324D01*
X2872Y323D02*
X2980Y323D01*
X3060Y323D02*
X3082Y323D01*
X3128Y323D02*
X3150Y323D01*
X3226Y323D02*
X3310Y323D01*
X3391Y323D02*
X3413Y323D01*
X3459Y323D02*
X3481Y323D01*
X2872Y322D02*
X2980Y322D01*
X3060Y322D02*
X3082Y322D01*
X3128Y322D02*
X3150Y322D01*
X3226Y322D02*
X3311Y322D01*
X3391Y322D02*
X3413Y322D01*
X3458Y322D02*
X3481Y322D01*
X2872Y321D02*
X2979Y321D01*
X3060Y321D02*
X3082Y321D01*
X3127Y321D02*
X3150Y321D01*
X3227Y321D02*
X3311Y321D01*
X3391Y321D02*
X3413Y321D01*
X3458Y321D02*
X3481Y321D01*
X2872Y320D02*
X2978Y320D01*
X3060Y320D02*
X3082Y320D01*
X3127Y320D02*
X3150Y320D01*
X3228Y320D02*
X3312Y320D01*
X3391Y320D02*
X3413Y320D01*
X3458Y320D02*
X3481Y320D01*
X2872Y319D02*
X2977Y319D01*
X3060Y319D02*
X3082Y319D01*
X3127Y319D02*
X3150Y319D01*
X3228Y319D02*
X3312Y319D01*
X3391Y319D02*
X3413Y319D01*
X3458Y319D02*
X3480Y319D01*
X2872Y318D02*
X2977Y318D01*
X3060Y318D02*
X3082Y318D01*
X3127Y318D02*
X3150Y318D01*
X3230Y318D02*
X3313Y318D01*
X3391Y318D02*
X3413Y318D01*
X3457Y318D02*
X3480Y318D01*
X2872Y317D02*
X2976Y317D01*
X3060Y317D02*
X3082Y317D01*
X3126Y317D02*
X3149Y317D01*
X3231Y317D02*
X3313Y317D01*
X3391Y317D02*
X3413Y317D01*
X3457Y317D02*
X3480Y317D01*
X2872Y316D02*
X2975Y316D01*
X3060Y316D02*
X3082Y316D01*
X3126Y316D02*
X3149Y316D01*
X3233Y316D02*
X3314Y316D01*
X3391Y316D02*
X3413Y316D01*
X3457Y316D02*
X3480Y316D01*
X2872Y315D02*
X2974Y315D01*
X3060Y315D02*
X3082Y315D01*
X3126Y315D02*
X3149Y315D01*
X3285Y315D02*
X3314Y315D01*
X3391Y315D02*
X3413Y315D01*
X3456Y315D02*
X3480Y315D01*
X2872Y314D02*
X2973Y314D01*
X3060Y314D02*
X3082Y314D01*
X3125Y314D02*
X3149Y314D01*
X3287Y314D02*
X3314Y314D01*
X3391Y314D02*
X3413Y314D01*
X3456Y314D02*
X3479Y314D01*
X2872Y313D02*
X2971Y313D01*
X3060Y313D02*
X3082Y313D01*
X3125Y313D02*
X3148Y313D01*
X3289Y313D02*
X3315Y313D01*
X3391Y313D02*
X3413Y313D01*
X3455Y313D02*
X3479Y313D01*
X2872Y312D02*
X2970Y312D01*
X3060Y312D02*
X3082Y312D01*
X3124Y312D02*
X3148Y312D01*
X3290Y312D02*
X3315Y312D01*
X3391Y312D02*
X3413Y312D01*
X3455Y312D02*
X3479Y312D01*
X2872Y311D02*
X2969Y311D01*
X3060Y311D02*
X3082Y311D01*
X3124Y311D02*
X3148Y311D01*
X3291Y311D02*
X3315Y311D01*
X3391Y311D02*
X3413Y311D01*
X3454Y311D02*
X3479Y311D01*
X2872Y310D02*
X2967Y310D01*
X3060Y310D02*
X3082Y310D01*
X3123Y310D02*
X3147Y310D01*
X3292Y310D02*
X3315Y310D01*
X3391Y310D02*
X3413Y310D01*
X3454Y310D02*
X3478Y310D01*
X2872Y309D02*
X2965Y309D01*
X3060Y309D02*
X3082Y309D01*
X3123Y309D02*
X3147Y309D01*
X3292Y309D02*
X3315Y309D01*
X3391Y309D02*
X3413Y309D01*
X3453Y309D02*
X3478Y309D01*
X2872Y308D02*
X2963Y308D01*
X3060Y308D02*
X3082Y308D01*
X3122Y308D02*
X3147Y308D01*
X3293Y308D02*
X3316Y308D01*
X3391Y308D02*
X3413Y308D01*
X3453Y308D02*
X3477Y308D01*
X2872Y307D02*
X2960Y307D01*
X3060Y307D02*
X3082Y307D01*
X3122Y307D02*
X3146Y307D01*
X3293Y307D02*
X3316Y307D01*
X3391Y307D02*
X3413Y307D01*
X3452Y307D02*
X3477Y307D01*
X2872Y306D02*
X2955Y306D01*
X3060Y306D02*
X3082Y306D01*
X3121Y306D02*
X3146Y306D01*
X3293Y306D02*
X3316Y306D01*
X3391Y306D02*
X3413Y306D01*
X3452Y306D02*
X3477Y306D01*
X2872Y305D02*
X2894Y305D01*
X3060Y305D02*
X3082Y305D01*
X3121Y305D02*
X3145Y305D01*
X3294Y305D02*
X3316Y305D01*
X3391Y305D02*
X3413Y305D01*
X3451Y305D02*
X3476Y305D01*
X2872Y304D02*
X2894Y304D01*
X3060Y304D02*
X3082Y304D01*
X3120Y304D02*
X3145Y304D01*
X3294Y304D02*
X3316Y304D01*
X3391Y304D02*
X3413Y304D01*
X3451Y304D02*
X3476Y304D01*
X2872Y303D02*
X2894Y303D01*
X3060Y303D02*
X3082Y303D01*
X3120Y303D02*
X3145Y303D01*
X3294Y303D02*
X3316Y303D01*
X3391Y303D02*
X3413Y303D01*
X3450Y303D02*
X3475Y303D01*
X2872Y302D02*
X2894Y302D01*
X3060Y302D02*
X3082Y302D01*
X3119Y302D02*
X3144Y302D01*
X3294Y302D02*
X3316Y302D01*
X3391Y302D02*
X3413Y302D01*
X3450Y302D02*
X3475Y302D01*
X2872Y301D02*
X2894Y301D01*
X3060Y301D02*
X3082Y301D01*
X3119Y301D02*
X3144Y301D01*
X3294Y301D02*
X3316Y301D01*
X3391Y301D02*
X3413Y301D01*
X3449Y301D02*
X3474Y301D01*
X2872Y300D02*
X2894Y300D01*
X3060Y300D02*
X3082Y300D01*
X3118Y300D02*
X3143Y300D01*
X3294Y300D02*
X3316Y300D01*
X3391Y300D02*
X3413Y300D01*
X3449Y300D02*
X3474Y300D01*
X2872Y299D02*
X2894Y299D01*
X3060Y299D02*
X3082Y299D01*
X3118Y299D02*
X3143Y299D01*
X3294Y299D02*
X3316Y299D01*
X3391Y299D02*
X3413Y299D01*
X3448Y299D02*
X3473Y299D01*
X2872Y298D02*
X2894Y298D01*
X3060Y298D02*
X3082Y298D01*
X3117Y298D02*
X3142Y298D01*
X3294Y298D02*
X3316Y298D01*
X3391Y298D02*
X3413Y298D01*
X3448Y298D02*
X3473Y298D01*
X2872Y297D02*
X2894Y297D01*
X3060Y297D02*
X3082Y297D01*
X3117Y297D02*
X3142Y297D01*
X3294Y297D02*
X3316Y297D01*
X3391Y297D02*
X3413Y297D01*
X3447Y297D02*
X3472Y297D01*
X2872Y296D02*
X2894Y296D01*
X3060Y296D02*
X3082Y296D01*
X3116Y296D02*
X3141Y296D01*
X3294Y296D02*
X3316Y296D01*
X3391Y296D02*
X3413Y296D01*
X3447Y296D02*
X3472Y296D01*
X2872Y295D02*
X2894Y295D01*
X3060Y295D02*
X3082Y295D01*
X3116Y295D02*
X3141Y295D01*
X3294Y295D02*
X3316Y295D01*
X3391Y295D02*
X3413Y295D01*
X3446Y295D02*
X3471Y295D01*
X2872Y294D02*
X2894Y294D01*
X3060Y294D02*
X3082Y294D01*
X3115Y294D02*
X3140Y294D01*
X3294Y294D02*
X3316Y294D01*
X3391Y294D02*
X3413Y294D01*
X3446Y294D02*
X3471Y294D01*
X2872Y293D02*
X2894Y293D01*
X3060Y293D02*
X3082Y293D01*
X3115Y293D02*
X3140Y293D01*
X3294Y293D02*
X3316Y293D01*
X3391Y293D02*
X3413Y293D01*
X3445Y293D02*
X3470Y293D01*
X2872Y292D02*
X2894Y292D01*
X3060Y292D02*
X3082Y292D01*
X3114Y292D02*
X3139Y292D01*
X3294Y292D02*
X3316Y292D01*
X3391Y292D02*
X3413Y292D01*
X3445Y292D02*
X3470Y292D01*
X2872Y291D02*
X2894Y291D01*
X3060Y291D02*
X3082Y291D01*
X3114Y291D02*
X3139Y291D01*
X3294Y291D02*
X3316Y291D01*
X3391Y291D02*
X3413Y291D01*
X3444Y291D02*
X3469Y291D01*
X2872Y290D02*
X2894Y290D01*
X3060Y290D02*
X3082Y290D01*
X3113Y290D02*
X3138Y290D01*
X3294Y290D02*
X3316Y290D01*
X3391Y290D02*
X3413Y290D01*
X3444Y290D02*
X3469Y290D01*
X2872Y289D02*
X2894Y289D01*
X3060Y289D02*
X3082Y289D01*
X3113Y289D02*
X3138Y289D01*
X3294Y289D02*
X3316Y289D01*
X3391Y289D02*
X3413Y289D01*
X3443Y289D02*
X3468Y289D01*
X2872Y288D02*
X2894Y288D01*
X3060Y288D02*
X3082Y288D01*
X3112Y288D02*
X3137Y288D01*
X3294Y288D02*
X3316Y288D01*
X3391Y288D02*
X3413Y288D01*
X3443Y288D02*
X3468Y288D01*
X2872Y287D02*
X2894Y287D01*
X3060Y287D02*
X3082Y287D01*
X3112Y287D02*
X3137Y287D01*
X3294Y287D02*
X3316Y287D01*
X3391Y287D02*
X3413Y287D01*
X3442Y287D02*
X3467Y287D01*
X2872Y286D02*
X2894Y286D01*
X3060Y286D02*
X3082Y286D01*
X3111Y286D02*
X3136Y286D01*
X3294Y286D02*
X3316Y286D01*
X3391Y286D02*
X3413Y286D01*
X3442Y286D02*
X3467Y286D01*
X2872Y285D02*
X2894Y285D01*
X3060Y285D02*
X3082Y285D01*
X3110Y285D02*
X3136Y285D01*
X3294Y285D02*
X3316Y285D01*
X3391Y285D02*
X3413Y285D01*
X3441Y285D02*
X3466Y285D01*
X2872Y284D02*
X2894Y284D01*
X3060Y284D02*
X3082Y284D01*
X3110Y284D02*
X3135Y284D01*
X3294Y284D02*
X3316Y284D01*
X3391Y284D02*
X3413Y284D01*
X3441Y284D02*
X3466Y284D01*
X2872Y283D02*
X2894Y283D01*
X3060Y283D02*
X3082Y283D01*
X3109Y283D02*
X3135Y283D01*
X3294Y283D02*
X3316Y283D01*
X3391Y283D02*
X3413Y283D01*
X3440Y283D02*
X3465Y283D01*
X2872Y282D02*
X2894Y282D01*
X3060Y282D02*
X3082Y282D01*
X3109Y282D02*
X3134Y282D01*
X3294Y282D02*
X3316Y282D01*
X3391Y282D02*
X3413Y282D01*
X3440Y282D02*
X3465Y282D01*
X2872Y281D02*
X2894Y281D01*
X3060Y281D02*
X3082Y281D01*
X3108Y281D02*
X3134Y281D01*
X3294Y281D02*
X3316Y281D01*
X3391Y281D02*
X3413Y281D01*
X3439Y281D02*
X3464Y281D01*
X2872Y280D02*
X2894Y280D01*
X3060Y280D02*
X3082Y280D01*
X3108Y280D02*
X3133Y280D01*
X3294Y280D02*
X3316Y280D01*
X3391Y280D02*
X3413Y280D01*
X3439Y280D02*
X3464Y280D01*
X2872Y279D02*
X2894Y279D01*
X3060Y279D02*
X3082Y279D01*
X3107Y279D02*
X3133Y279D01*
X3294Y279D02*
X3316Y279D01*
X3391Y279D02*
X3413Y279D01*
X3438Y279D02*
X3463Y279D01*
X2872Y278D02*
X2894Y278D01*
X3060Y278D02*
X3082Y278D01*
X3107Y278D02*
X3132Y278D01*
X3294Y278D02*
X3316Y278D01*
X3391Y278D02*
X3413Y278D01*
X3438Y278D02*
X3463Y278D01*
X2872Y277D02*
X2894Y277D01*
X3060Y277D02*
X3082Y277D01*
X3106Y277D02*
X3132Y277D01*
X3294Y277D02*
X3316Y277D01*
X3391Y277D02*
X3413Y277D01*
X3437Y277D02*
X3462Y277D01*
X2872Y276D02*
X2894Y276D01*
X3060Y276D02*
X3082Y276D01*
X3106Y276D02*
X3131Y276D01*
X3294Y276D02*
X3316Y276D01*
X3391Y276D02*
X3413Y276D01*
X3437Y276D02*
X3462Y276D01*
X2872Y275D02*
X2894Y275D01*
X3060Y275D02*
X3082Y275D01*
X3105Y275D02*
X3131Y275D01*
X3294Y275D02*
X3316Y275D01*
X3391Y275D02*
X3413Y275D01*
X3436Y275D02*
X3461Y275D01*
X2872Y274D02*
X2894Y274D01*
X3060Y274D02*
X3082Y274D01*
X3105Y274D02*
X3130Y274D01*
X3294Y274D02*
X3316Y274D01*
X3391Y274D02*
X3413Y274D01*
X3436Y274D02*
X3461Y274D01*
X2872Y273D02*
X2894Y273D01*
X3060Y273D02*
X3082Y273D01*
X3104Y273D02*
X3130Y273D01*
X3294Y273D02*
X3316Y273D01*
X3391Y273D02*
X3413Y273D01*
X3435Y273D02*
X3460Y273D01*
X2872Y272D02*
X2894Y272D01*
X3060Y272D02*
X3082Y272D01*
X3104Y272D02*
X3129Y272D01*
X3294Y272D02*
X3316Y272D01*
X3391Y272D02*
X3413Y272D01*
X3435Y272D02*
X3460Y272D01*
X2872Y271D02*
X2894Y271D01*
X3060Y271D02*
X3082Y271D01*
X3103Y271D02*
X3129Y271D01*
X3294Y271D02*
X3316Y271D01*
X3391Y271D02*
X3413Y271D01*
X3434Y271D02*
X3459Y271D01*
X2872Y270D02*
X2894Y270D01*
X3060Y270D02*
X3082Y270D01*
X3103Y270D02*
X3128Y270D01*
X3294Y270D02*
X3316Y270D01*
X3391Y270D02*
X3413Y270D01*
X3434Y270D02*
X3459Y270D01*
X2872Y269D02*
X2894Y269D01*
X3060Y269D02*
X3082Y269D01*
X3102Y269D02*
X3128Y269D01*
X3294Y269D02*
X3316Y269D01*
X3391Y269D02*
X3413Y269D01*
X3433Y269D02*
X3459Y269D01*
X2872Y268D02*
X2894Y268D01*
X3060Y268D02*
X3082Y268D01*
X3102Y268D02*
X3127Y268D01*
X3294Y268D02*
X3316Y268D01*
X3391Y268D02*
X3413Y268D01*
X3433Y268D02*
X3458Y268D01*
X2872Y267D02*
X2894Y267D01*
X3060Y267D02*
X3082Y267D01*
X3101Y267D02*
X3127Y267D01*
X3294Y267D02*
X3316Y267D01*
X3391Y267D02*
X3413Y267D01*
X3432Y267D02*
X3458Y267D01*
X2872Y266D02*
X2894Y266D01*
X3060Y266D02*
X3082Y266D01*
X3101Y266D02*
X3126Y266D01*
X3294Y266D02*
X3316Y266D01*
X3391Y266D02*
X3413Y266D01*
X3432Y266D02*
X3457Y266D01*
X2872Y265D02*
X2894Y265D01*
X3060Y265D02*
X3082Y265D01*
X3100Y265D02*
X3126Y265D01*
X3294Y265D02*
X3316Y265D01*
X3391Y265D02*
X3413Y265D01*
X3431Y265D02*
X3457Y265D01*
X2872Y264D02*
X2894Y264D01*
X3060Y264D02*
X3082Y264D01*
X3099Y264D02*
X3125Y264D01*
X3294Y264D02*
X3316Y264D01*
X3391Y264D02*
X3413Y264D01*
X3430Y264D02*
X3456Y264D01*
X2872Y263D02*
X2894Y263D01*
X3060Y263D02*
X3082Y263D01*
X3098Y263D02*
X3125Y263D01*
X3294Y263D02*
X3316Y263D01*
X3391Y263D02*
X3413Y263D01*
X3429Y263D02*
X3456Y263D01*
X2872Y262D02*
X2894Y262D01*
X3060Y262D02*
X3082Y262D01*
X3097Y262D02*
X3124Y262D01*
X3294Y262D02*
X3316Y262D01*
X3391Y262D02*
X3413Y262D01*
X3428Y262D02*
X3455Y262D01*
X2872Y261D02*
X2894Y261D01*
X3060Y261D02*
X3082Y261D01*
X3095Y261D02*
X3124Y261D01*
X3294Y261D02*
X3316Y261D01*
X3391Y261D02*
X3413Y261D01*
X3425Y261D02*
X3455Y261D01*
X2872Y260D02*
X2894Y260D01*
X3045Y260D02*
X3123Y260D01*
X3210Y260D02*
X3316Y260D01*
X3376Y260D02*
X3454Y260D01*
X2872Y259D02*
X2894Y259D01*
X3043Y259D02*
X3123Y259D01*
X3208Y259D02*
X3316Y259D01*
X3374Y259D02*
X3454Y259D01*
X2872Y258D02*
X2894Y258D01*
X3041Y258D02*
X3122Y258D01*
X3207Y258D02*
X3316Y258D01*
X3372Y258D02*
X3453Y258D01*
X2872Y257D02*
X2894Y257D01*
X3040Y257D02*
X3122Y257D01*
X3206Y257D02*
X3316Y257D01*
X3371Y257D02*
X3453Y257D01*
X2872Y256D02*
X2894Y256D01*
X3039Y256D02*
X3121Y256D01*
X3205Y256D02*
X3315Y256D01*
X3370Y256D02*
X3452Y256D01*
X2872Y255D02*
X2894Y255D01*
X3039Y255D02*
X3121Y255D01*
X3204Y255D02*
X3315Y255D01*
X3370Y255D02*
X3452Y255D01*
X2872Y254D02*
X2894Y254D01*
X3038Y254D02*
X3120Y254D01*
X3204Y254D02*
X3315Y254D01*
X3369Y254D02*
X3451Y254D01*
X2872Y253D02*
X2894Y253D01*
X3038Y253D02*
X3120Y253D01*
X3203Y253D02*
X3314Y253D01*
X3369Y253D02*
X3450Y253D01*
X2872Y252D02*
X2894Y252D01*
X3037Y252D02*
X3119Y252D01*
X3203Y252D02*
X3314Y252D01*
X3368Y252D02*
X3450Y252D01*
X2872Y251D02*
X2894Y251D01*
X3037Y251D02*
X3118Y251D01*
X3203Y251D02*
X3314Y251D01*
X3368Y251D02*
X3449Y251D01*
X2872Y250D02*
X2894Y250D01*
X3037Y250D02*
X3117Y250D01*
X3203Y250D02*
X3313Y250D01*
X3368Y250D02*
X3448Y250D01*
X2872Y249D02*
X2894Y249D01*
X3037Y249D02*
X3117Y249D01*
X3202Y249D02*
X3313Y249D01*
X3368Y249D02*
X3447Y249D01*
X2872Y248D02*
X2894Y248D01*
X3037Y248D02*
X3116Y248D01*
X3203Y248D02*
X3312Y248D01*
X3368Y248D02*
X3446Y248D01*
X2872Y247D02*
X2894Y247D01*
X3037Y247D02*
X3115Y247D01*
X3203Y247D02*
X3311Y247D01*
X3368Y247D02*
X3445Y247D01*
X2872Y246D02*
X2893Y246D01*
X3037Y246D02*
X3114Y246D01*
X3203Y246D02*
X3310Y246D01*
X3368Y246D02*
X3444Y246D01*
X2872Y245D02*
X2893Y245D01*
X3038Y245D02*
X3112Y245D01*
X3203Y245D02*
X3309Y245D01*
X3369Y245D02*
X3443Y245D01*
X2873Y244D02*
X2893Y244D01*
X3038Y244D02*
X3111Y244D01*
X3204Y244D02*
X3308Y244D01*
X3369Y244D02*
X3442Y244D01*
X2873Y243D02*
X2892Y243D01*
X3039Y243D02*
X3110Y243D01*
X3204Y243D02*
X3307Y243D01*
X3370Y243D02*
X3440Y243D01*
X2874Y242D02*
X2891Y242D01*
X3039Y242D02*
X3108Y242D01*
X3205Y242D02*
X3306Y242D01*
X3370Y242D02*
X3439Y242D01*
X2875Y241D02*
X2891Y241D01*
X3040Y241D02*
X3106Y241D01*
X3206Y241D02*
X3305Y241D01*
X3371Y241D02*
X3437Y241D01*
X2876Y240D02*
X2889Y240D01*
X3041Y240D02*
X3104Y240D01*
X3207Y240D02*
X3303Y240D01*
X3372Y240D02*
X3434Y240D01*
X2877Y239D02*
X2888Y239D01*
X3043Y239D02*
X3101Y239D01*
X3208Y239D02*
X3301Y239D01*
X3374Y239D02*
X3432Y239D01*
X2879Y238D02*
X2886Y238D01*
X3045Y238D02*
X3097Y238D01*
X3210Y238D02*
X3298Y238D01*
X3376Y238D02*
X3427Y238D01*
X2229Y175D02*
X2231Y175D01*
X2475Y175D02*
X2477Y175D01*
X2646Y175D02*
X2648Y175D01*
X2976Y175D02*
X2988Y175D01*
X3014Y175D02*
X3027Y175D01*
X3205Y175D02*
X3207Y175D01*
X3396Y175D02*
X3398Y175D01*
X2228Y174D02*
X2233Y174D01*
X2473Y174D02*
X2479Y174D01*
X2644Y174D02*
X2650Y174D01*
X2976Y174D02*
X2989Y174D01*
X3014Y174D02*
X3027Y174D01*
X3203Y174D02*
X3208Y174D01*
X3394Y174D02*
X3400Y174D01*
X2227Y173D02*
X2234Y173D01*
X2472Y173D02*
X2480Y173D01*
X2643Y173D02*
X2651Y173D01*
X2976Y173D02*
X2990Y173D01*
X3013Y173D02*
X3027Y173D01*
X3202Y173D02*
X3209Y173D01*
X3393Y173D02*
X3401Y173D01*
X2226Y172D02*
X2235Y172D01*
X2472Y172D02*
X2480Y172D01*
X2643Y172D02*
X2651Y172D01*
X2976Y172D02*
X2990Y172D01*
X3012Y172D02*
X3027Y172D01*
X3201Y172D02*
X3210Y172D01*
X3393Y172D02*
X3401Y172D01*
X2226Y171D02*
X2235Y171D01*
X2471Y171D02*
X2481Y171D01*
X2642Y171D02*
X2651Y171D01*
X2976Y171D02*
X2991Y171D01*
X3012Y171D02*
X3027Y171D01*
X3201Y171D02*
X3210Y171D01*
X3393Y171D02*
X3402Y171D01*
X2226Y170D02*
X2235Y170D01*
X2471Y170D02*
X2481Y170D01*
X2642Y170D02*
X2652Y170D01*
X2976Y170D02*
X2992Y170D01*
X3011Y170D02*
X3027Y170D01*
X3201Y170D02*
X3210Y170D01*
X3392Y170D02*
X3402Y170D01*
X2226Y169D02*
X2235Y169D01*
X2471Y169D02*
X2481Y169D01*
X2642Y169D02*
X2652Y169D01*
X2976Y169D02*
X2992Y169D01*
X3010Y169D02*
X3027Y169D01*
X3201Y169D02*
X3210Y169D01*
X3392Y169D02*
X3402Y169D01*
X2226Y168D02*
X2235Y168D01*
X2471Y168D02*
X2482Y168D01*
X2642Y168D02*
X2652Y168D01*
X2976Y168D02*
X2993Y168D01*
X3009Y168D02*
X3027Y168D01*
X3201Y168D02*
X3210Y168D01*
X3392Y168D02*
X3402Y168D01*
X2226Y167D02*
X2235Y167D01*
X2470Y167D02*
X2482Y167D01*
X2642Y167D02*
X2652Y167D01*
X2976Y167D02*
X2994Y167D01*
X3009Y167D02*
X3027Y167D01*
X3201Y167D02*
X3210Y167D01*
X3392Y167D02*
X3402Y167D01*
X2226Y166D02*
X2235Y166D01*
X2470Y166D02*
X2482Y166D01*
X2642Y166D02*
X2652Y166D01*
X2976Y166D02*
X2995Y166D01*
X3008Y166D02*
X3027Y166D01*
X3201Y166D02*
X3210Y166D01*
X3392Y166D02*
X3402Y166D01*
X2226Y165D02*
X2235Y165D01*
X2470Y165D02*
X2483Y165D01*
X2642Y165D02*
X2652Y165D01*
X2976Y165D02*
X2995Y165D01*
X3007Y165D02*
X3027Y165D01*
X3201Y165D02*
X3210Y165D01*
X3392Y165D02*
X3402Y165D01*
X2226Y164D02*
X2235Y164D01*
X2469Y164D02*
X2483Y164D01*
X2642Y164D02*
X2652Y164D01*
X2976Y164D02*
X2996Y164D01*
X3007Y164D02*
X3027Y164D01*
X3201Y164D02*
X3210Y164D01*
X3392Y164D02*
X3402Y164D01*
X2226Y163D02*
X2235Y163D01*
X2469Y163D02*
X2483Y163D01*
X2642Y163D02*
X2652Y163D01*
X2976Y163D02*
X2997Y163D01*
X3006Y163D02*
X3027Y163D01*
X3201Y163D02*
X3210Y163D01*
X3392Y163D02*
X3402Y163D01*
X2226Y162D02*
X2235Y162D01*
X2469Y162D02*
X2483Y162D01*
X2642Y162D02*
X2652Y162D01*
X2976Y162D02*
X2997Y162D01*
X3005Y162D02*
X3027Y162D01*
X3201Y162D02*
X3210Y162D01*
X3392Y162D02*
X3402Y162D01*
X2226Y161D02*
X2235Y161D01*
X2468Y161D02*
X2484Y161D01*
X2642Y161D02*
X2652Y161D01*
X2976Y161D02*
X2998Y161D01*
X3005Y161D02*
X3027Y161D01*
X3201Y161D02*
X3210Y161D01*
X3392Y161D02*
X3402Y161D01*
X2226Y160D02*
X2235Y160D01*
X2468Y160D02*
X2484Y160D01*
X2642Y160D02*
X2652Y160D01*
X2976Y160D02*
X2999Y160D01*
X3004Y160D02*
X3027Y160D01*
X3201Y160D02*
X3210Y160D01*
X3392Y160D02*
X3402Y160D01*
X2226Y159D02*
X2235Y159D01*
X2468Y159D02*
X2484Y159D01*
X2642Y159D02*
X2652Y159D01*
X2976Y159D02*
X2985Y159D01*
X2988Y159D02*
X2999Y159D01*
X3003Y159D02*
X3015Y159D01*
X3017Y159D02*
X3027Y159D01*
X3201Y159D02*
X3210Y159D01*
X3392Y159D02*
X3402Y159D01*
X2226Y158D02*
X2235Y158D01*
X2468Y158D02*
X2485Y158D01*
X2642Y158D02*
X2652Y158D01*
X2976Y158D02*
X2985Y158D01*
X2988Y158D02*
X3000Y158D01*
X3002Y158D02*
X3014Y158D01*
X3017Y158D02*
X3027Y158D01*
X3201Y158D02*
X3210Y158D01*
X3392Y158D02*
X3402Y158D01*
X2226Y157D02*
X2235Y157D01*
X2467Y157D02*
X2485Y157D01*
X2642Y157D02*
X2652Y157D01*
X2976Y157D02*
X2985Y157D01*
X2989Y157D02*
X3014Y157D01*
X3017Y157D02*
X3027Y157D01*
X3201Y157D02*
X3210Y157D01*
X3392Y157D02*
X3402Y157D01*
X2226Y156D02*
X2235Y156D01*
X2467Y156D02*
X2485Y156D01*
X2642Y156D02*
X2652Y156D01*
X2976Y156D02*
X2985Y156D01*
X2990Y156D02*
X3013Y156D01*
X3017Y156D02*
X3027Y156D01*
X3201Y156D02*
X3210Y156D01*
X3392Y156D02*
X3402Y156D01*
X2226Y155D02*
X2235Y155D01*
X2467Y155D02*
X2485Y155D01*
X2642Y155D02*
X2652Y155D01*
X2976Y155D02*
X2985Y155D01*
X2990Y155D02*
X3012Y155D01*
X3017Y155D02*
X3027Y155D01*
X3201Y155D02*
X3210Y155D01*
X3392Y155D02*
X3402Y155D01*
X2226Y154D02*
X2235Y154D01*
X2466Y154D02*
X2486Y154D01*
X2642Y154D02*
X2652Y154D01*
X2976Y154D02*
X2985Y154D01*
X2991Y154D02*
X3012Y154D01*
X3017Y154D02*
X3027Y154D01*
X3201Y154D02*
X3210Y154D01*
X3392Y154D02*
X3402Y154D01*
X2226Y153D02*
X2235Y153D01*
X2249Y153D02*
X2260Y153D01*
X2305Y153D02*
X2306Y153D01*
X2346Y153D02*
X2347Y153D01*
X2466Y153D02*
X2486Y153D01*
X2530Y153D02*
X2531Y153D01*
X2552Y153D02*
X2562Y153D01*
X2618Y153D02*
X2629Y153D01*
X2642Y153D02*
X2652Y153D01*
X2680Y153D02*
X2681Y153D01*
X2700Y153D02*
X2713Y153D01*
X2768Y153D02*
X2785Y153D01*
X2839Y153D02*
X2864Y153D01*
X2976Y153D02*
X2985Y153D01*
X2992Y153D02*
X3011Y153D01*
X3017Y153D02*
X3027Y153D01*
X3066Y153D02*
X3087Y153D01*
X3149Y153D02*
X3172Y153D01*
X3201Y153D02*
X3210Y153D01*
X3228Y153D02*
X3237Y153D01*
X3291Y153D02*
X3312Y153D01*
X3368Y153D02*
X3379Y153D01*
X3392Y153D02*
X3402Y153D01*
X3443Y153D02*
X3460Y153D01*
X2226Y152D02*
X2235Y152D01*
X2245Y152D02*
X2263Y152D01*
X2303Y152D02*
X2308Y152D01*
X2344Y152D02*
X2349Y152D01*
X2466Y152D02*
X2486Y152D01*
X2528Y152D02*
X2533Y152D01*
X2549Y152D02*
X2566Y152D01*
X2614Y152D02*
X2633Y152D01*
X2642Y152D02*
X2652Y152D01*
X2678Y152D02*
X2683Y152D01*
X2698Y152D02*
X2717Y152D01*
X2764Y152D02*
X2788Y152D01*
X2835Y152D02*
X2868Y152D01*
X2976Y152D02*
X2985Y152D01*
X2992Y152D02*
X3010Y152D01*
X3017Y152D02*
X3027Y152D01*
X3063Y152D02*
X3091Y152D01*
X3145Y152D02*
X3175Y152D01*
X3201Y152D02*
X3210Y152D01*
X3224Y152D02*
X3241Y152D01*
X3288Y152D02*
X3316Y152D01*
X3364Y152D02*
X3383Y152D01*
X3392Y152D02*
X3402Y152D01*
X3439Y152D02*
X3463Y152D01*
X2226Y151D02*
X2235Y151D01*
X2242Y151D02*
X2265Y151D01*
X2302Y151D02*
X2309Y151D01*
X2343Y151D02*
X2350Y151D01*
X2466Y151D02*
X2487Y151D01*
X2527Y151D02*
X2534Y151D01*
X2547Y151D02*
X2568Y151D01*
X2612Y151D02*
X2635Y151D01*
X2642Y151D02*
X2652Y151D01*
X2677Y151D02*
X2684Y151D01*
X2697Y151D02*
X2719Y151D01*
X2762Y151D02*
X2790Y151D01*
X2833Y151D02*
X2870Y151D01*
X2976Y151D02*
X2985Y151D01*
X2993Y151D02*
X3009Y151D01*
X3017Y151D02*
X3027Y151D01*
X3062Y151D02*
X3093Y151D01*
X3142Y151D02*
X3176Y151D01*
X3201Y151D02*
X3210Y151D01*
X3222Y151D02*
X3243Y151D01*
X3287Y151D02*
X3318Y151D01*
X3362Y151D02*
X3385Y151D01*
X3392Y151D02*
X3402Y151D01*
X3437Y151D02*
X3465Y151D01*
X2226Y150D02*
X2235Y150D01*
X2241Y150D02*
X2266Y150D01*
X2301Y150D02*
X2310Y150D01*
X2342Y150D02*
X2351Y150D01*
X2465Y150D02*
X2475Y150D01*
X2477Y150D02*
X2487Y150D01*
X2526Y150D02*
X2535Y150D01*
X2545Y150D02*
X2569Y150D01*
X2611Y150D02*
X2636Y150D01*
X2642Y150D02*
X2652Y150D01*
X2676Y150D02*
X2685Y150D01*
X2696Y150D02*
X2720Y150D01*
X2761Y150D02*
X2792Y150D01*
X2832Y150D02*
X2871Y150D01*
X2976Y150D02*
X2985Y150D01*
X2994Y150D02*
X3009Y150D01*
X3017Y150D02*
X3027Y150D01*
X3062Y150D02*
X3094Y150D01*
X3141Y150D02*
X3176Y150D01*
X3201Y150D02*
X3210Y150D01*
X3220Y150D02*
X3244Y150D01*
X3287Y150D02*
X3319Y150D01*
X3361Y150D02*
X3387Y150D01*
X3392Y150D02*
X3402Y150D01*
X3436Y150D02*
X3467Y150D01*
X2226Y149D02*
X2235Y149D01*
X2239Y149D02*
X2268Y149D01*
X2301Y149D02*
X2310Y149D01*
X2342Y149D02*
X2351Y149D01*
X2465Y149D02*
X2475Y149D01*
X2477Y149D02*
X2487Y149D01*
X2526Y149D02*
X2535Y149D01*
X2544Y149D02*
X2570Y149D01*
X2609Y149D02*
X2638Y149D01*
X2642Y149D02*
X2652Y149D01*
X2676Y149D02*
X2685Y149D01*
X2695Y149D02*
X2721Y149D01*
X2760Y149D02*
X2793Y149D01*
X2831Y149D02*
X2872Y149D01*
X2976Y149D02*
X2985Y149D01*
X2995Y149D02*
X3008Y149D01*
X3017Y149D02*
X3027Y149D01*
X3061Y149D02*
X3095Y149D01*
X3139Y149D02*
X3177Y149D01*
X3201Y149D02*
X3210Y149D01*
X3219Y149D02*
X3245Y149D01*
X3286Y149D02*
X3320Y149D01*
X3360Y149D02*
X3388Y149D01*
X3392Y149D02*
X3402Y149D01*
X3435Y149D02*
X3468Y149D01*
X2226Y148D02*
X2235Y148D01*
X2238Y148D02*
X2269Y148D01*
X2301Y148D02*
X2310Y148D01*
X2342Y148D02*
X2352Y148D01*
X2465Y148D02*
X2475Y148D01*
X2477Y148D02*
X2488Y148D01*
X2526Y148D02*
X2535Y148D01*
X2542Y148D02*
X2571Y148D01*
X2608Y148D02*
X2639Y148D01*
X2642Y148D02*
X2652Y148D01*
X2676Y148D02*
X2685Y148D01*
X2694Y148D02*
X2722Y148D01*
X2758Y148D02*
X2794Y148D01*
X2830Y148D02*
X2873Y148D01*
X2976Y148D02*
X2985Y148D01*
X2995Y148D02*
X3007Y148D01*
X3017Y148D02*
X3027Y148D01*
X3061Y148D02*
X3096Y148D01*
X3138Y148D02*
X3177Y148D01*
X3201Y148D02*
X3210Y148D01*
X3217Y148D02*
X3246Y148D01*
X3286Y148D02*
X3321Y148D01*
X3359Y148D02*
X3389Y148D01*
X3392Y148D02*
X3402Y148D01*
X3434Y148D02*
X3469Y148D01*
X2226Y147D02*
X2235Y147D01*
X2237Y147D02*
X2270Y147D01*
X2301Y147D02*
X2310Y147D01*
X2342Y147D02*
X2352Y147D01*
X2464Y147D02*
X2474Y147D01*
X2478Y147D02*
X2488Y147D01*
X2526Y147D02*
X2535Y147D01*
X2540Y147D02*
X2572Y147D01*
X2607Y147D02*
X2640Y147D01*
X2642Y147D02*
X2652Y147D01*
X2676Y147D02*
X2685Y147D01*
X2692Y147D02*
X2723Y147D01*
X2757Y147D02*
X2795Y147D01*
X2829Y147D02*
X2874Y147D01*
X2976Y147D02*
X2985Y147D01*
X2996Y147D02*
X3007Y147D01*
X3017Y147D02*
X3027Y147D01*
X3061Y147D02*
X3097Y147D01*
X3137Y147D02*
X3177Y147D01*
X3201Y147D02*
X3210Y147D01*
X3216Y147D02*
X3247Y147D01*
X3286Y147D02*
X3322Y147D01*
X3357Y147D02*
X3390Y147D01*
X3392Y147D02*
X3402Y147D01*
X3432Y147D02*
X3470Y147D01*
X2226Y146D02*
X2271Y146D01*
X2301Y146D02*
X2310Y146D01*
X2342Y146D02*
X2352Y146D01*
X2464Y146D02*
X2474Y146D01*
X2478Y146D02*
X2488Y146D01*
X2526Y146D02*
X2535Y146D01*
X2539Y146D02*
X2573Y146D01*
X2606Y146D02*
X2652Y146D01*
X2676Y146D02*
X2685Y146D01*
X2691Y146D02*
X2724Y146D01*
X2756Y146D02*
X2796Y146D01*
X2829Y146D02*
X2875Y146D01*
X2976Y146D02*
X2985Y146D01*
X2996Y146D02*
X3006Y146D01*
X3017Y146D02*
X3027Y146D01*
X3062Y146D02*
X3098Y146D01*
X3136Y146D02*
X3176Y146D01*
X3201Y146D02*
X3210Y146D01*
X3214Y146D02*
X3248Y146D01*
X3287Y146D02*
X3323Y146D01*
X3356Y146D02*
X3402Y146D01*
X3431Y146D02*
X3472Y146D01*
X2226Y145D02*
X2272Y145D01*
X2301Y145D02*
X2310Y145D01*
X2342Y145D02*
X2352Y145D01*
X2464Y145D02*
X2474Y145D01*
X2478Y145D02*
X2488Y145D01*
X2526Y145D02*
X2535Y145D01*
X2537Y145D02*
X2573Y145D01*
X2605Y145D02*
X2652Y145D01*
X2676Y145D02*
X2685Y145D01*
X2690Y145D02*
X2725Y145D01*
X2755Y145D02*
X2797Y145D01*
X2828Y145D02*
X2875Y145D01*
X2976Y145D02*
X2985Y145D01*
X2997Y145D02*
X3006Y145D01*
X3017Y145D02*
X3027Y145D01*
X3062Y145D02*
X3098Y145D01*
X3135Y145D02*
X3176Y145D01*
X3201Y145D02*
X3210Y145D01*
X3213Y145D02*
X3249Y145D01*
X3287Y145D02*
X3324Y145D01*
X3355Y145D02*
X3402Y145D01*
X3430Y145D02*
X3473Y145D01*
X2226Y144D02*
X2273Y144D01*
X2301Y144D02*
X2310Y144D01*
X2342Y144D02*
X2352Y144D01*
X2463Y144D02*
X2473Y144D01*
X2479Y144D02*
X2489Y144D01*
X2526Y144D02*
X2574Y144D01*
X2604Y144D02*
X2652Y144D01*
X2676Y144D02*
X2685Y144D01*
X2689Y144D02*
X2725Y144D01*
X2754Y144D02*
X2798Y144D01*
X2828Y144D02*
X2875Y144D01*
X2976Y144D02*
X2985Y144D01*
X2997Y144D02*
X3006Y144D01*
X3017Y144D02*
X3027Y144D01*
X3063Y144D02*
X3099Y144D01*
X3134Y144D02*
X3175Y144D01*
X3201Y144D02*
X3249Y144D01*
X3288Y144D02*
X3324Y144D01*
X3355Y144D02*
X3402Y144D01*
X3429Y144D02*
X3473Y144D01*
X2226Y143D02*
X2274Y143D01*
X2301Y143D02*
X2310Y143D01*
X2342Y143D02*
X2352Y143D01*
X2463Y143D02*
X2473Y143D01*
X2479Y143D02*
X2489Y143D01*
X2526Y143D02*
X2574Y143D01*
X2603Y143D02*
X2652Y143D01*
X2676Y143D02*
X2685Y143D01*
X2688Y143D02*
X2726Y143D01*
X2754Y143D02*
X2799Y143D01*
X2827Y143D02*
X2875Y143D01*
X2976Y143D02*
X2985Y143D01*
X2997Y143D02*
X3006Y143D01*
X3017Y143D02*
X3027Y143D01*
X3065Y143D02*
X3099Y143D01*
X3133Y143D02*
X3173Y143D01*
X3201Y143D02*
X3249Y143D01*
X3290Y143D02*
X3324Y143D01*
X3354Y143D02*
X3402Y143D01*
X3429Y143D02*
X3474Y143D01*
X2226Y142D02*
X2247Y142D01*
X2260Y142D02*
X2274Y142D01*
X2301Y142D02*
X2310Y142D01*
X2342Y142D02*
X2352Y142D01*
X2463Y142D02*
X2473Y142D01*
X2479Y142D02*
X2489Y142D01*
X2526Y142D02*
X2551Y142D01*
X2563Y142D02*
X2575Y142D01*
X2603Y142D02*
X2617Y142D01*
X2630Y142D02*
X2652Y142D01*
X2676Y142D02*
X2702Y142D01*
X2714Y142D02*
X2726Y142D01*
X2753Y142D02*
X2767Y142D01*
X2786Y142D02*
X2800Y142D01*
X2827Y142D02*
X2838Y142D01*
X2865Y142D02*
X2875Y142D01*
X2976Y142D02*
X2985Y142D01*
X2997Y142D02*
X3006Y142D01*
X3017Y142D02*
X3027Y142D01*
X3089Y142D02*
X3100Y142D01*
X3132Y142D02*
X3147Y142D01*
X3201Y142D02*
X3226Y142D01*
X3238Y142D02*
X3250Y142D01*
X3314Y142D02*
X3325Y142D01*
X3353Y142D02*
X3367Y142D01*
X3381Y142D02*
X3402Y142D01*
X3428Y142D02*
X3442Y142D01*
X3461Y142D02*
X3475Y142D01*
X2226Y141D02*
X2245Y141D01*
X2262Y141D02*
X2275Y141D01*
X2301Y141D02*
X2310Y141D01*
X2342Y141D02*
X2352Y141D01*
X2463Y141D02*
X2473Y141D01*
X2480Y141D02*
X2490Y141D01*
X2526Y141D02*
X2550Y141D01*
X2564Y141D02*
X2575Y141D01*
X2602Y141D02*
X2615Y141D01*
X2632Y141D02*
X2652Y141D01*
X2676Y141D02*
X2701Y141D01*
X2716Y141D02*
X2726Y141D01*
X2752Y141D02*
X2765Y141D01*
X2787Y141D02*
X2800Y141D01*
X2827Y141D02*
X2837Y141D01*
X2866Y141D02*
X2875Y141D01*
X2976Y141D02*
X2985Y141D01*
X2997Y141D02*
X3005Y141D01*
X3017Y141D02*
X3027Y141D01*
X3089Y141D02*
X3100Y141D01*
X3131Y141D02*
X3146Y141D01*
X3201Y141D02*
X3225Y141D01*
X3239Y141D02*
X3250Y141D01*
X3315Y141D02*
X3325Y141D01*
X3352Y141D02*
X3365Y141D01*
X3382Y141D02*
X3402Y141D01*
X3428Y141D02*
X3441Y141D01*
X3463Y141D02*
X3475Y141D01*
X2226Y140D02*
X2244Y140D01*
X2263Y140D02*
X2275Y140D01*
X2301Y140D02*
X2310Y140D01*
X2342Y140D02*
X2352Y140D01*
X2462Y140D02*
X2472Y140D01*
X2480Y140D02*
X2490Y140D01*
X2526Y140D02*
X2548Y140D01*
X2565Y140D02*
X2575Y140D01*
X2602Y140D02*
X2614Y140D01*
X2633Y140D02*
X2652Y140D01*
X2676Y140D02*
X2700Y140D01*
X2716Y140D02*
X2726Y140D01*
X2752Y140D02*
X2764Y140D01*
X2789Y140D02*
X2801Y140D01*
X2827Y140D02*
X2837Y140D01*
X2868Y140D02*
X2874Y140D01*
X2976Y140D02*
X2985Y140D01*
X2998Y140D02*
X3005Y140D01*
X3017Y140D02*
X3027Y140D01*
X3090Y140D02*
X3100Y140D01*
X3130Y140D02*
X3145Y140D01*
X3201Y140D02*
X3223Y140D01*
X3240Y140D02*
X3250Y140D01*
X3315Y140D02*
X3325Y140D01*
X3352Y140D02*
X3364Y140D01*
X3383Y140D02*
X3402Y140D01*
X3427Y140D02*
X3439Y140D01*
X3464Y140D02*
X3476Y140D01*
X2226Y139D02*
X2243Y139D01*
X2264Y139D02*
X2276Y139D01*
X2301Y139D02*
X2311Y139D01*
X2341Y139D02*
X2352Y139D01*
X2462Y139D02*
X2472Y139D01*
X2480Y139D02*
X2490Y139D01*
X2526Y139D02*
X2547Y139D01*
X2565Y139D02*
X2575Y139D01*
X2601Y139D02*
X2613Y139D01*
X2634Y139D02*
X2652Y139D01*
X2676Y139D02*
X2698Y139D01*
X2717Y139D02*
X2727Y139D01*
X2752Y139D02*
X2763Y139D01*
X2790Y139D02*
X2801Y139D01*
X2827Y139D02*
X2837Y139D01*
X2869Y139D02*
X2873Y139D01*
X2976Y139D02*
X2985Y139D01*
X2999Y139D02*
X3003Y139D01*
X3017Y139D02*
X3027Y139D01*
X3090Y139D02*
X3100Y139D01*
X3129Y139D02*
X3143Y139D01*
X3201Y139D02*
X3222Y139D01*
X3241Y139D02*
X3250Y139D01*
X3316Y139D02*
X3325Y139D01*
X3352Y139D02*
X3363Y139D01*
X3384Y139D02*
X3402Y139D01*
X3427Y139D02*
X3438Y139D01*
X3465Y139D02*
X3476Y139D01*
X2226Y138D02*
X2242Y138D01*
X2265Y138D02*
X2276Y138D01*
X2301Y138D02*
X2311Y138D01*
X2341Y138D02*
X2351Y138D01*
X2462Y138D02*
X2472Y138D01*
X2480Y138D02*
X2490Y138D01*
X2526Y138D02*
X2545Y138D01*
X2566Y138D02*
X2575Y138D01*
X2601Y138D02*
X2612Y138D01*
X2635Y138D02*
X2652Y138D01*
X2676Y138D02*
X2697Y138D01*
X2717Y138D02*
X2727Y138D01*
X2751Y138D02*
X2762Y138D01*
X2791Y138D02*
X2801Y138D01*
X2827Y138D02*
X2837Y138D01*
X2976Y138D02*
X2985Y138D01*
X3017Y138D02*
X3027Y138D01*
X3091Y138D02*
X3100Y138D01*
X3128Y138D02*
X3142Y138D01*
X3201Y138D02*
X3220Y138D01*
X3241Y138D02*
X3250Y138D01*
X3316Y138D02*
X3325Y138D01*
X3351Y138D02*
X3362Y138D01*
X3385Y138D02*
X3402Y138D01*
X3427Y138D02*
X3437Y138D01*
X3466Y138D02*
X3476Y138D01*
X2226Y137D02*
X2241Y137D01*
X2266Y137D02*
X2276Y137D01*
X2301Y137D02*
X2312Y137D01*
X2341Y137D02*
X2351Y137D01*
X2461Y137D02*
X2471Y137D01*
X2481Y137D02*
X2491Y137D01*
X2526Y137D02*
X2543Y137D01*
X2566Y137D02*
X2575Y137D01*
X2601Y137D02*
X2611Y137D01*
X2636Y137D02*
X2652Y137D01*
X2676Y137D02*
X2696Y137D01*
X2717Y137D02*
X2727Y137D01*
X2751Y137D02*
X2761Y137D01*
X2791Y137D02*
X2801Y137D01*
X2827Y137D02*
X2838Y137D01*
X2976Y137D02*
X2985Y137D01*
X3017Y137D02*
X3027Y137D01*
X3091Y137D02*
X3100Y137D01*
X3128Y137D02*
X3141Y137D01*
X3201Y137D02*
X3219Y137D01*
X3241Y137D02*
X3251Y137D01*
X3316Y137D02*
X3326Y137D01*
X3351Y137D02*
X3361Y137D01*
X3387Y137D02*
X3402Y137D01*
X3426Y137D02*
X3436Y137D01*
X3467Y137D02*
X3477Y137D01*
X2226Y136D02*
X2240Y136D01*
X2267Y136D02*
X2276Y136D01*
X2301Y136D02*
X2312Y136D01*
X2340Y136D02*
X2351Y136D01*
X2461Y136D02*
X2471Y136D01*
X2481Y136D02*
X2491Y136D01*
X2526Y136D02*
X2542Y136D01*
X2566Y136D02*
X2575Y136D01*
X2601Y136D02*
X2611Y136D01*
X2638Y136D02*
X2652Y136D01*
X2676Y136D02*
X2695Y136D01*
X2717Y136D02*
X2727Y136D01*
X2751Y136D02*
X2761Y136D01*
X2792Y136D02*
X2802Y136D01*
X2828Y136D02*
X2841Y136D01*
X2976Y136D02*
X2985Y136D01*
X3017Y136D02*
X3027Y136D01*
X3091Y136D02*
X3101Y136D01*
X3127Y136D02*
X3140Y136D01*
X3201Y136D02*
X3217Y136D01*
X3241Y136D02*
X3251Y136D01*
X3316Y136D02*
X3326Y136D01*
X3351Y136D02*
X3361Y136D01*
X3388Y136D02*
X3402Y136D01*
X3426Y136D02*
X3436Y136D01*
X3467Y136D02*
X3477Y136D01*
X2226Y135D02*
X2238Y135D01*
X2267Y135D02*
X2276Y135D01*
X2302Y135D02*
X2312Y135D01*
X2340Y135D02*
X2350Y135D01*
X2461Y135D02*
X2471Y135D01*
X2481Y135D02*
X2491Y135D01*
X2526Y135D02*
X2540Y135D01*
X2566Y135D02*
X2575Y135D01*
X2601Y135D02*
X2610Y135D01*
X2639Y135D02*
X2652Y135D01*
X2676Y135D02*
X2694Y135D01*
X2717Y135D02*
X2727Y135D01*
X2751Y135D02*
X2760Y135D01*
X2792Y135D02*
X2802Y135D01*
X2828Y135D02*
X2843Y135D01*
X2976Y135D02*
X2985Y135D01*
X3017Y135D02*
X3027Y135D01*
X3091Y135D02*
X3101Y135D01*
X3127Y135D02*
X3139Y135D01*
X3201Y135D02*
X3216Y135D01*
X3241Y135D02*
X3251Y135D01*
X3316Y135D02*
X3326Y135D01*
X3351Y135D02*
X3361Y135D01*
X3389Y135D02*
X3402Y135D01*
X3426Y135D02*
X3436Y135D01*
X3467Y135D02*
X3477Y135D01*
X2226Y134D02*
X2237Y134D01*
X2267Y134D02*
X2277Y134D01*
X2302Y134D02*
X2313Y134D01*
X2339Y134D02*
X2350Y134D01*
X2461Y134D02*
X2471Y134D01*
X2482Y134D02*
X2492Y134D01*
X2526Y134D02*
X2539Y134D01*
X2566Y134D02*
X2575Y134D01*
X2601Y134D02*
X2610Y134D01*
X2640Y134D02*
X2652Y134D01*
X2676Y134D02*
X2693Y134D01*
X2717Y134D02*
X2727Y134D01*
X2751Y134D02*
X2760Y134D01*
X2792Y134D02*
X2802Y134D01*
X2829Y134D02*
X2845Y134D01*
X2976Y134D02*
X2985Y134D01*
X3017Y134D02*
X3027Y134D01*
X3091Y134D02*
X3101Y134D01*
X3126Y134D02*
X3138Y134D01*
X3201Y134D02*
X3214Y134D01*
X3241Y134D02*
X3251Y134D01*
X3316Y134D02*
X3326Y134D01*
X3351Y134D02*
X3361Y134D01*
X3390Y134D02*
X3402Y134D01*
X3426Y134D02*
X3436Y134D01*
X3467Y134D02*
X3477Y134D01*
X2226Y133D02*
X2236Y133D01*
X2267Y133D02*
X2277Y133D01*
X2303Y133D02*
X2313Y133D01*
X2339Y133D02*
X2349Y133D01*
X2460Y133D02*
X2470Y133D01*
X2482Y133D02*
X2492Y133D01*
X2526Y133D02*
X2537Y133D01*
X2566Y133D02*
X2575Y133D01*
X2601Y133D02*
X2610Y133D01*
X2641Y133D02*
X2652Y133D01*
X2676Y133D02*
X2691Y133D01*
X2717Y133D02*
X2726Y133D01*
X2751Y133D02*
X2760Y133D01*
X2792Y133D02*
X2802Y133D01*
X2829Y133D02*
X2848Y133D01*
X2976Y133D02*
X2985Y133D01*
X3017Y133D02*
X3027Y133D01*
X3091Y133D02*
X3101Y133D01*
X3126Y133D02*
X3136Y133D01*
X3201Y133D02*
X3212Y133D01*
X3241Y133D02*
X3251Y133D01*
X3316Y133D02*
X3326Y133D01*
X3351Y133D02*
X3361Y133D01*
X3391Y133D02*
X3402Y133D01*
X3426Y133D02*
X3436Y133D01*
X3467Y133D02*
X3477Y133D01*
X2226Y132D02*
X2236Y132D01*
X2267Y132D02*
X2277Y132D01*
X2303Y132D02*
X2314Y132D01*
X2338Y132D02*
X2349Y132D01*
X2460Y132D02*
X2470Y132D01*
X2482Y132D02*
X2492Y132D01*
X2526Y132D02*
X2536Y132D01*
X2566Y132D02*
X2575Y132D01*
X2601Y132D02*
X2610Y132D01*
X2642Y132D02*
X2652Y132D01*
X2676Y132D02*
X2690Y132D01*
X2718Y132D02*
X2726Y132D01*
X2751Y132D02*
X2760Y132D01*
X2792Y132D02*
X2802Y132D01*
X2830Y132D02*
X2850Y132D01*
X2976Y132D02*
X2985Y132D01*
X3017Y132D02*
X3027Y132D01*
X3091Y132D02*
X3101Y132D01*
X3126Y132D02*
X3136Y132D01*
X3201Y132D02*
X3211Y132D01*
X3241Y132D02*
X3251Y132D01*
X3316Y132D02*
X3326Y132D01*
X3351Y132D02*
X3361Y132D01*
X3392Y132D02*
X3402Y132D01*
X3426Y132D02*
X3436Y132D01*
X3467Y132D02*
X3477Y132D01*
X2226Y131D02*
X2235Y131D01*
X2267Y131D02*
X2277Y131D01*
X2304Y131D02*
X2314Y131D01*
X2338Y131D02*
X2348Y131D01*
X2460Y131D02*
X2470Y131D01*
X2483Y131D02*
X2492Y131D01*
X2526Y131D02*
X2535Y131D01*
X2566Y131D02*
X2576Y131D01*
X2601Y131D02*
X2610Y131D01*
X2642Y131D02*
X2652Y131D01*
X2676Y131D02*
X2689Y131D01*
X2719Y131D02*
X2725Y131D01*
X2751Y131D02*
X2760Y131D01*
X2792Y131D02*
X2802Y131D01*
X2830Y131D02*
X2852Y131D01*
X2976Y131D02*
X2985Y131D01*
X3017Y131D02*
X3027Y131D01*
X3066Y131D02*
X3087Y131D01*
X3091Y131D02*
X3101Y131D01*
X3126Y131D02*
X3136Y131D01*
X3201Y131D02*
X3210Y131D01*
X3241Y131D02*
X3251Y131D01*
X3291Y131D02*
X3312Y131D01*
X3316Y131D02*
X3326Y131D01*
X3351Y131D02*
X3361Y131D01*
X3392Y131D02*
X3402Y131D01*
X3426Y131D02*
X3436Y131D01*
X3467Y131D02*
X3477Y131D01*
X2226Y130D02*
X2235Y130D01*
X2267Y130D02*
X2277Y130D01*
X2304Y130D02*
X2315Y130D01*
X2337Y130D02*
X2348Y130D01*
X2459Y130D02*
X2469Y130D01*
X2483Y130D02*
X2493Y130D01*
X2526Y130D02*
X2535Y130D01*
X2566Y130D02*
X2576Y130D01*
X2601Y130D02*
X2610Y130D01*
X2642Y130D02*
X2652Y130D01*
X2676Y130D02*
X2688Y130D01*
X2720Y130D02*
X2724Y130D01*
X2751Y130D02*
X2760Y130D01*
X2792Y130D02*
X2802Y130D01*
X2831Y130D02*
X2855Y130D01*
X2976Y130D02*
X2985Y130D01*
X3017Y130D02*
X3027Y130D01*
X3061Y130D02*
X3101Y130D01*
X3126Y130D02*
X3135Y130D01*
X3201Y130D02*
X3210Y130D01*
X3241Y130D02*
X3251Y130D01*
X3286Y130D02*
X3326Y130D01*
X3351Y130D02*
X3361Y130D01*
X3392Y130D02*
X3402Y130D01*
X3426Y130D02*
X3436Y130D01*
X3467Y130D02*
X3477Y130D01*
X2226Y129D02*
X2235Y129D01*
X2267Y129D02*
X2277Y129D01*
X2305Y129D02*
X2315Y129D01*
X2337Y129D02*
X2348Y129D01*
X2459Y129D02*
X2469Y129D01*
X2483Y129D02*
X2493Y129D01*
X2526Y129D02*
X2535Y129D01*
X2566Y129D02*
X2576Y129D01*
X2601Y129D02*
X2610Y129D01*
X2642Y129D02*
X2652Y129D01*
X2676Y129D02*
X2687Y129D01*
X2751Y129D02*
X2760Y129D01*
X2792Y129D02*
X2802Y129D01*
X2833Y129D02*
X2857Y129D01*
X2976Y129D02*
X2985Y129D01*
X3017Y129D02*
X3027Y129D01*
X3059Y129D02*
X3101Y129D01*
X3126Y129D02*
X3135Y129D01*
X3201Y129D02*
X3210Y129D01*
X3241Y129D02*
X3251Y129D01*
X3284Y129D02*
X3326Y129D01*
X3351Y129D02*
X3361Y129D01*
X3392Y129D02*
X3402Y129D01*
X3426Y129D02*
X3436Y129D01*
X3467Y129D02*
X3477Y129D01*
X2226Y128D02*
X2235Y128D01*
X2267Y128D02*
X2277Y128D01*
X2305Y128D02*
X2316Y128D01*
X2337Y128D02*
X2347Y128D01*
X2459Y128D02*
X2469Y128D01*
X2483Y128D02*
X2493Y128D01*
X2526Y128D02*
X2535Y128D01*
X2566Y128D02*
X2576Y128D01*
X2601Y128D02*
X2610Y128D01*
X2642Y128D02*
X2652Y128D01*
X2676Y128D02*
X2686Y128D01*
X2751Y128D02*
X2760Y128D01*
X2792Y128D02*
X2802Y128D01*
X2834Y128D02*
X2859Y128D01*
X2976Y128D02*
X2985Y128D01*
X3017Y128D02*
X3027Y128D01*
X3057Y128D02*
X3101Y128D01*
X3126Y128D02*
X3135Y128D01*
X3201Y128D02*
X3210Y128D01*
X3241Y128D02*
X3251Y128D01*
X3282Y128D02*
X3326Y128D01*
X3351Y128D02*
X3361Y128D01*
X3392Y128D02*
X3402Y128D01*
X3426Y128D02*
X3436Y128D01*
X3467Y128D02*
X3477Y128D01*
X2226Y127D02*
X2235Y127D01*
X2267Y127D02*
X2277Y127D01*
X2305Y127D02*
X2316Y127D01*
X2336Y127D02*
X2347Y127D01*
X2459Y127D02*
X2469Y127D01*
X2484Y127D02*
X2494Y127D01*
X2526Y127D02*
X2535Y127D01*
X2566Y127D02*
X2576Y127D01*
X2601Y127D02*
X2610Y127D01*
X2642Y127D02*
X2652Y127D01*
X2676Y127D02*
X2685Y127D01*
X2751Y127D02*
X2760Y127D01*
X2792Y127D02*
X2802Y127D01*
X2836Y127D02*
X2862Y127D01*
X2976Y127D02*
X2985Y127D01*
X3017Y127D02*
X3027Y127D01*
X3056Y127D02*
X3101Y127D01*
X3126Y127D02*
X3135Y127D01*
X3201Y127D02*
X3210Y127D01*
X3241Y127D02*
X3251Y127D01*
X3281Y127D02*
X3326Y127D01*
X3351Y127D02*
X3361Y127D01*
X3392Y127D02*
X3402Y127D01*
X3426Y127D02*
X3436Y127D01*
X3467Y127D02*
X3477Y127D01*
X2226Y126D02*
X2235Y126D01*
X2267Y126D02*
X2277Y126D01*
X2306Y126D02*
X2316Y126D01*
X2336Y126D02*
X2346Y126D01*
X2458Y126D02*
X2468Y126D01*
X2484Y126D02*
X2494Y126D01*
X2526Y126D02*
X2535Y126D01*
X2566Y126D02*
X2576Y126D01*
X2601Y126D02*
X2610Y126D01*
X2642Y126D02*
X2652Y126D01*
X2676Y126D02*
X2685Y126D01*
X2751Y126D02*
X2802Y126D01*
X2839Y126D02*
X2864Y126D01*
X2976Y126D02*
X2985Y126D01*
X3017Y126D02*
X3027Y126D01*
X3055Y126D02*
X3101Y126D01*
X3126Y126D02*
X3135Y126D01*
X3201Y126D02*
X3210Y126D01*
X3241Y126D02*
X3251Y126D01*
X3280Y126D02*
X3326Y126D01*
X3351Y126D02*
X3361Y126D01*
X3392Y126D02*
X3402Y126D01*
X3426Y126D02*
X3436Y126D01*
X3467Y126D02*
X3477Y126D01*
X2226Y125D02*
X2235Y125D01*
X2267Y125D02*
X2277Y125D01*
X2306Y125D02*
X2317Y125D01*
X2335Y125D02*
X2346Y125D01*
X2458Y125D02*
X2468Y125D01*
X2484Y125D02*
X2494Y125D01*
X2526Y125D02*
X2535Y125D01*
X2566Y125D02*
X2576Y125D01*
X2601Y125D02*
X2610Y125D01*
X2642Y125D02*
X2652Y125D01*
X2676Y125D02*
X2685Y125D01*
X2751Y125D02*
X2802Y125D01*
X2841Y125D02*
X2866Y125D01*
X2976Y125D02*
X2985Y125D01*
X3017Y125D02*
X3027Y125D01*
X3054Y125D02*
X3101Y125D01*
X3126Y125D02*
X3135Y125D01*
X3201Y125D02*
X3210Y125D01*
X3241Y125D02*
X3251Y125D01*
X3279Y125D02*
X3326Y125D01*
X3351Y125D02*
X3361Y125D01*
X3392Y125D02*
X3402Y125D01*
X3426Y125D02*
X3436Y125D01*
X3467Y125D02*
X3477Y125D01*
X2226Y124D02*
X2235Y124D01*
X2267Y124D02*
X2277Y124D01*
X2307Y124D02*
X2317Y124D01*
X2335Y124D02*
X2345Y124D01*
X2458Y124D02*
X2468Y124D01*
X2485Y124D02*
X2495Y124D01*
X2526Y124D02*
X2535Y124D01*
X2566Y124D02*
X2576Y124D01*
X2601Y124D02*
X2610Y124D01*
X2642Y124D02*
X2652Y124D01*
X2676Y124D02*
X2685Y124D01*
X2751Y124D02*
X2802Y124D01*
X2843Y124D02*
X2868Y124D01*
X2976Y124D02*
X2985Y124D01*
X3017Y124D02*
X3027Y124D01*
X3053Y124D02*
X3101Y124D01*
X3126Y124D02*
X3135Y124D01*
X3201Y124D02*
X3210Y124D01*
X3241Y124D02*
X3251Y124D01*
X3279Y124D02*
X3326Y124D01*
X3351Y124D02*
X3361Y124D01*
X3392Y124D02*
X3402Y124D01*
X3426Y124D02*
X3436Y124D01*
X3467Y124D02*
X3477Y124D01*
X2226Y123D02*
X2235Y123D01*
X2267Y123D02*
X2277Y123D01*
X2307Y123D02*
X2318Y123D01*
X2334Y123D02*
X2345Y123D01*
X2457Y123D02*
X2467Y123D01*
X2485Y123D02*
X2495Y123D01*
X2526Y123D02*
X2535Y123D01*
X2566Y123D02*
X2576Y123D01*
X2601Y123D02*
X2610Y123D01*
X2642Y123D02*
X2652Y123D01*
X2676Y123D02*
X2685Y123D01*
X2751Y123D02*
X2802Y123D01*
X2845Y123D02*
X2870Y123D01*
X2976Y123D02*
X2985Y123D01*
X3017Y123D02*
X3027Y123D01*
X3053Y123D02*
X3101Y123D01*
X3126Y123D02*
X3135Y123D01*
X3201Y123D02*
X3210Y123D01*
X3241Y123D02*
X3251Y123D01*
X3278Y123D02*
X3326Y123D01*
X3351Y123D02*
X3361Y123D01*
X3392Y123D02*
X3402Y123D01*
X3426Y123D02*
X3436Y123D01*
X3467Y123D02*
X3477Y123D01*
X2226Y122D02*
X2235Y122D01*
X2267Y122D02*
X2277Y122D01*
X2308Y122D02*
X2318Y122D01*
X2334Y122D02*
X2345Y122D01*
X2457Y122D02*
X2495Y122D01*
X2526Y122D02*
X2535Y122D01*
X2566Y122D02*
X2576Y122D01*
X2601Y122D02*
X2610Y122D01*
X2642Y122D02*
X2652Y122D01*
X2676Y122D02*
X2685Y122D01*
X2751Y122D02*
X2802Y122D01*
X2848Y122D02*
X2871Y122D01*
X2976Y122D02*
X2985Y122D01*
X3017Y122D02*
X3027Y122D01*
X3052Y122D02*
X3101Y122D01*
X3126Y122D02*
X3135Y122D01*
X3201Y122D02*
X3210Y122D01*
X3242Y122D02*
X3251Y122D01*
X3277Y122D02*
X3326Y122D01*
X3351Y122D02*
X3361Y122D01*
X3392Y122D02*
X3402Y122D01*
X3426Y122D02*
X3436Y122D01*
X3467Y122D02*
X3477Y122D01*
X2226Y121D02*
X2235Y121D01*
X2267Y121D02*
X2277Y121D01*
X2308Y121D02*
X2319Y121D01*
X2334Y121D02*
X2344Y121D01*
X2457Y121D02*
X2495Y121D01*
X2526Y121D02*
X2535Y121D01*
X2566Y121D02*
X2576Y121D01*
X2601Y121D02*
X2610Y121D01*
X2642Y121D02*
X2652Y121D01*
X2676Y121D02*
X2685Y121D01*
X2751Y121D02*
X2802Y121D01*
X2850Y121D02*
X2872Y121D01*
X2976Y121D02*
X2985Y121D01*
X3017Y121D02*
X3027Y121D01*
X3052Y121D02*
X3101Y121D01*
X3126Y121D02*
X3135Y121D01*
X3201Y121D02*
X3210Y121D01*
X3242Y121D02*
X3251Y121D01*
X3277Y121D02*
X3326Y121D01*
X3351Y121D02*
X3361Y121D01*
X3392Y121D02*
X3402Y121D01*
X3426Y121D02*
X3436Y121D01*
X3467Y121D02*
X3477Y121D01*
X2226Y120D02*
X2235Y120D01*
X2267Y120D02*
X2277Y120D01*
X2309Y120D02*
X2319Y120D01*
X2333Y120D02*
X2344Y120D01*
X2456Y120D02*
X2496Y120D01*
X2526Y120D02*
X2535Y120D01*
X2566Y120D02*
X2576Y120D01*
X2601Y120D02*
X2610Y120D01*
X2642Y120D02*
X2652Y120D01*
X2676Y120D02*
X2685Y120D01*
X2751Y120D02*
X2801Y120D01*
X2852Y120D02*
X2873Y120D01*
X2976Y120D02*
X2985Y120D01*
X3017Y120D02*
X3027Y120D01*
X3052Y120D02*
X3063Y120D01*
X3089Y120D02*
X3101Y120D01*
X3126Y120D02*
X3135Y120D01*
X3201Y120D02*
X3210Y120D01*
X3242Y120D02*
X3251Y120D01*
X3277Y120D02*
X3288Y120D01*
X3314Y120D02*
X3326Y120D01*
X3351Y120D02*
X3361Y120D01*
X3392Y120D02*
X3402Y120D01*
X3426Y120D02*
X3436Y120D01*
X3467Y120D02*
X3477Y120D01*
X2226Y119D02*
X2235Y119D01*
X2267Y119D02*
X2277Y119D01*
X2309Y119D02*
X2319Y119D01*
X2333Y119D02*
X2343Y119D01*
X2456Y119D02*
X2496Y119D01*
X2526Y119D02*
X2535Y119D01*
X2566Y119D02*
X2576Y119D01*
X2601Y119D02*
X2610Y119D01*
X2642Y119D02*
X2652Y119D01*
X2676Y119D02*
X2685Y119D01*
X2751Y119D02*
X2801Y119D01*
X2855Y119D02*
X2874Y119D01*
X2976Y119D02*
X2985Y119D01*
X3017Y119D02*
X3027Y119D01*
X3051Y119D02*
X3062Y119D01*
X3090Y119D02*
X3101Y119D01*
X3126Y119D02*
X3135Y119D01*
X3201Y119D02*
X3210Y119D01*
X3242Y119D02*
X3251Y119D01*
X3276Y119D02*
X3287Y119D01*
X3315Y119D02*
X3326Y119D01*
X3351Y119D02*
X3361Y119D01*
X3392Y119D02*
X3402Y119D01*
X3426Y119D02*
X3436Y119D01*
X3467Y119D02*
X3477Y119D01*
X2226Y118D02*
X2235Y118D01*
X2267Y118D02*
X2277Y118D01*
X2309Y118D02*
X2320Y118D01*
X2332Y118D02*
X2343Y118D01*
X2456Y118D02*
X2496Y118D01*
X2526Y118D02*
X2535Y118D01*
X2566Y118D02*
X2576Y118D01*
X2601Y118D02*
X2610Y118D01*
X2642Y118D02*
X2652Y118D01*
X2676Y118D02*
X2685Y118D01*
X2751Y118D02*
X2800Y118D01*
X2857Y118D02*
X2874Y118D01*
X2976Y118D02*
X2985Y118D01*
X3017Y118D02*
X3027Y118D01*
X3051Y118D02*
X3061Y118D01*
X3091Y118D02*
X3101Y118D01*
X3126Y118D02*
X3135Y118D01*
X3201Y118D02*
X3210Y118D01*
X3242Y118D02*
X3251Y118D01*
X3276Y118D02*
X3286Y118D01*
X3316Y118D02*
X3326Y118D01*
X3351Y118D02*
X3361Y118D01*
X3392Y118D02*
X3402Y118D01*
X3426Y118D02*
X3436Y118D01*
X3467Y118D02*
X3477Y118D01*
X2226Y117D02*
X2235Y117D01*
X2267Y117D02*
X2277Y117D01*
X2310Y117D02*
X2320Y117D01*
X2332Y117D02*
X2342Y117D01*
X2456Y117D02*
X2497Y117D01*
X2526Y117D02*
X2535Y117D01*
X2566Y117D02*
X2576Y117D01*
X2601Y117D02*
X2610Y117D01*
X2642Y117D02*
X2652Y117D01*
X2676Y117D02*
X2685Y117D01*
X2751Y117D02*
X2799Y117D01*
X2859Y117D02*
X2875Y117D01*
X2976Y117D02*
X2985Y117D01*
X3017Y117D02*
X3027Y117D01*
X3051Y117D02*
X3061Y117D01*
X3091Y117D02*
X3101Y117D01*
X3126Y117D02*
X3135Y117D01*
X3201Y117D02*
X3210Y117D01*
X3242Y117D02*
X3251Y117D01*
X3276Y117D02*
X3286Y117D01*
X3316Y117D02*
X3326Y117D01*
X3351Y117D02*
X3361Y117D01*
X3392Y117D02*
X3402Y117D01*
X3426Y117D02*
X3436Y117D01*
X3467Y117D02*
X3477Y117D01*
X2226Y116D02*
X2235Y116D01*
X2267Y116D02*
X2277Y116D01*
X2310Y116D02*
X2321Y116D01*
X2331Y116D02*
X2342Y116D01*
X2455Y116D02*
X2497Y116D01*
X2526Y116D02*
X2535Y116D01*
X2567Y116D02*
X2576Y116D01*
X2601Y116D02*
X2610Y116D01*
X2642Y116D02*
X2652Y116D01*
X2676Y116D02*
X2685Y116D01*
X2751Y116D02*
X2761Y116D01*
X2862Y116D02*
X2875Y116D01*
X2976Y116D02*
X2985Y116D01*
X3017Y116D02*
X3027Y116D01*
X3051Y116D02*
X3061Y116D01*
X3092Y116D02*
X3101Y116D01*
X3126Y116D02*
X3136Y116D01*
X3201Y116D02*
X3210Y116D01*
X3242Y116D02*
X3251Y116D01*
X3276Y116D02*
X3286Y116D01*
X3317Y116D02*
X3326Y116D01*
X3351Y116D02*
X3361Y116D01*
X3392Y116D02*
X3402Y116D01*
X3426Y116D02*
X3436Y116D01*
X3467Y116D02*
X3477Y116D01*
X2226Y115D02*
X2236Y115D01*
X2267Y115D02*
X2277Y115D01*
X2311Y115D02*
X2321Y115D01*
X2331Y115D02*
X2341Y115D01*
X2455Y115D02*
X2497Y115D01*
X2526Y115D02*
X2535Y115D01*
X2567Y115D02*
X2576Y115D01*
X2601Y115D02*
X2610Y115D01*
X2642Y115D02*
X2652Y115D01*
X2676Y115D02*
X2685Y115D01*
X2751Y115D02*
X2760Y115D01*
X2864Y115D02*
X2876Y115D01*
X2976Y115D02*
X2985Y115D01*
X3017Y115D02*
X3027Y115D01*
X3051Y115D02*
X3060Y115D01*
X3092Y115D02*
X3101Y115D01*
X3126Y115D02*
X3136Y115D01*
X3201Y115D02*
X3210Y115D01*
X3242Y115D02*
X3251Y115D01*
X3276Y115D02*
X3286Y115D01*
X3317Y115D02*
X3326Y115D01*
X3351Y115D02*
X3361Y115D01*
X3392Y115D02*
X3402Y115D01*
X3426Y115D02*
X3436Y115D01*
X3467Y115D02*
X3477Y115D01*
X2226Y114D02*
X2237Y114D01*
X2267Y114D02*
X2277Y114D01*
X2311Y114D02*
X2322Y114D01*
X2330Y114D02*
X2341Y114D01*
X2455Y114D02*
X2497Y114D01*
X2526Y114D02*
X2535Y114D01*
X2567Y114D02*
X2576Y114D01*
X2601Y114D02*
X2610Y114D01*
X2641Y114D02*
X2652Y114D01*
X2676Y114D02*
X2685Y114D01*
X2751Y114D02*
X2760Y114D01*
X2865Y114D02*
X2876Y114D01*
X2976Y114D02*
X2985Y114D01*
X3017Y114D02*
X3027Y114D01*
X3051Y114D02*
X3060Y114D01*
X3092Y114D02*
X3101Y114D01*
X3126Y114D02*
X3137Y114D01*
X3201Y114D02*
X3210Y114D01*
X3242Y114D02*
X3251Y114D01*
X3276Y114D02*
X3286Y114D01*
X3317Y114D02*
X3326Y114D01*
X3351Y114D02*
X3361Y114D01*
X3391Y114D02*
X3402Y114D01*
X3426Y114D02*
X3436Y114D01*
X3467Y114D02*
X3477Y114D01*
X2226Y113D02*
X2238Y113D01*
X2267Y113D02*
X2277Y113D01*
X2312Y113D02*
X2322Y113D01*
X2330Y113D02*
X2341Y113D01*
X2454Y113D02*
X2498Y113D01*
X2526Y113D02*
X2535Y113D01*
X2567Y113D02*
X2576Y113D01*
X2601Y113D02*
X2610Y113D01*
X2640Y113D02*
X2652Y113D01*
X2676Y113D02*
X2685Y113D01*
X2751Y113D02*
X2760Y113D01*
X2866Y113D02*
X2876Y113D01*
X2976Y113D02*
X2985Y113D01*
X3017Y113D02*
X3027Y113D01*
X3051Y113D02*
X3060Y113D01*
X3092Y113D02*
X3101Y113D01*
X3127Y113D02*
X3138Y113D01*
X3201Y113D02*
X3210Y113D01*
X3242Y113D02*
X3251Y113D01*
X3276Y113D02*
X3286Y113D01*
X3317Y113D02*
X3326Y113D01*
X3351Y113D02*
X3361Y113D01*
X3390Y113D02*
X3402Y113D01*
X3426Y113D02*
X3436Y113D01*
X3467Y113D02*
X3477Y113D01*
X2226Y112D02*
X2239Y112D01*
X2267Y112D02*
X2276Y112D01*
X2312Y112D02*
X2322Y112D01*
X2330Y112D02*
X2340Y112D01*
X2454Y112D02*
X2498Y112D01*
X2526Y112D02*
X2535Y112D01*
X2567Y112D02*
X2576Y112D01*
X2601Y112D02*
X2610Y112D01*
X2639Y112D02*
X2652Y112D01*
X2676Y112D02*
X2685Y112D01*
X2751Y112D02*
X2760Y112D01*
X2867Y112D02*
X2876Y112D01*
X2976Y112D02*
X2985Y112D01*
X3017Y112D02*
X3027Y112D01*
X3051Y112D02*
X3060Y112D01*
X3092Y112D02*
X3101Y112D01*
X3127Y112D02*
X3139Y112D01*
X3201Y112D02*
X3210Y112D01*
X3242Y112D02*
X3251Y112D01*
X3276Y112D02*
X3286Y112D01*
X3317Y112D02*
X3326Y112D01*
X3351Y112D02*
X3361Y112D01*
X3389Y112D02*
X3402Y112D01*
X3426Y112D02*
X3436Y112D01*
X3467Y112D02*
X3477Y112D01*
X2226Y111D02*
X2240Y111D01*
X2267Y111D02*
X2276Y111D01*
X2312Y111D02*
X2323Y111D01*
X2329Y111D02*
X2340Y111D01*
X2454Y111D02*
X2464Y111D01*
X2488Y111D02*
X2498Y111D01*
X2526Y111D02*
X2535Y111D01*
X2567Y111D02*
X2576Y111D01*
X2601Y111D02*
X2611Y111D01*
X2637Y111D02*
X2652Y111D01*
X2676Y111D02*
X2685Y111D01*
X2751Y111D02*
X2761Y111D01*
X2867Y111D02*
X2877Y111D01*
X2976Y111D02*
X2985Y111D01*
X3017Y111D02*
X3027Y111D01*
X3051Y111D02*
X3060Y111D01*
X3091Y111D02*
X3101Y111D01*
X3127Y111D02*
X3140Y111D01*
X3201Y111D02*
X3210Y111D01*
X3242Y111D02*
X3251Y111D01*
X3276Y111D02*
X3286Y111D01*
X3316Y111D02*
X3326Y111D01*
X3351Y111D02*
X3361Y111D01*
X3388Y111D02*
X3402Y111D01*
X3426Y111D02*
X3436Y111D01*
X3467Y111D02*
X3477Y111D01*
X2226Y110D02*
X2241Y110D01*
X2266Y110D02*
X2276Y110D01*
X2313Y110D02*
X2323Y110D01*
X2329Y110D02*
X2339Y110D01*
X2454Y110D02*
X2464Y110D01*
X2489Y110D02*
X2499Y110D01*
X2526Y110D02*
X2535Y110D01*
X2567Y110D02*
X2576Y110D01*
X2601Y110D02*
X2611Y110D01*
X2636Y110D02*
X2652Y110D01*
X2676Y110D02*
X2685Y110D01*
X2751Y110D02*
X2761Y110D01*
X2867Y110D02*
X2877Y110D01*
X2976Y110D02*
X2985Y110D01*
X3017Y110D02*
X3027Y110D01*
X3051Y110D02*
X3060Y110D01*
X3090Y110D02*
X3101Y110D01*
X3128Y110D02*
X3141Y110D01*
X3201Y110D02*
X3210Y110D01*
X3242Y110D02*
X3251Y110D01*
X3276Y110D02*
X3286Y110D01*
X3315Y110D02*
X3326Y110D01*
X3351Y110D02*
X3361Y110D01*
X3386Y110D02*
X3402Y110D01*
X3426Y110D02*
X3436Y110D01*
X3466Y110D02*
X3477Y110D01*
X2226Y109D02*
X2242Y109D01*
X2265Y109D02*
X2276Y109D01*
X2313Y109D02*
X2324Y109D01*
X2328Y109D02*
X2339Y109D01*
X2453Y109D02*
X2463Y109D01*
X2489Y109D02*
X2499Y109D01*
X2526Y109D02*
X2535Y109D01*
X2567Y109D02*
X2576Y109D01*
X2601Y109D02*
X2612Y109D01*
X2635Y109D02*
X2652Y109D01*
X2676Y109D02*
X2685Y109D01*
X2751Y109D02*
X2762Y109D01*
X2867Y109D02*
X2877Y109D01*
X2976Y109D02*
X2985Y109D01*
X3017Y109D02*
X3027Y109D01*
X3051Y109D02*
X3061Y109D01*
X3088Y109D02*
X3101Y109D01*
X3128Y109D02*
X3142Y109D01*
X3201Y109D02*
X3210Y109D01*
X3242Y109D02*
X3251Y109D01*
X3276Y109D02*
X3286Y109D01*
X3313Y109D02*
X3327Y109D01*
X3351Y109D02*
X3362Y109D01*
X3385Y109D02*
X3402Y109D01*
X3426Y109D02*
X3437Y109D01*
X3465Y109D02*
X3477Y109D01*
X2226Y108D02*
X2243Y108D01*
X2264Y108D02*
X2276Y108D01*
X2314Y108D02*
X2338Y108D01*
X2453Y108D02*
X2463Y108D01*
X2489Y108D02*
X2499Y108D01*
X2526Y108D02*
X2535Y108D01*
X2567Y108D02*
X2576Y108D01*
X2602Y108D02*
X2613Y108D01*
X2634Y108D02*
X2652Y108D01*
X2676Y108D02*
X2685Y108D01*
X2752Y108D02*
X2763Y108D01*
X2828Y108D02*
X2833Y108D01*
X2866Y108D02*
X2876Y108D01*
X2976Y108D02*
X2985Y108D01*
X3017Y108D02*
X3027Y108D01*
X3051Y108D02*
X3061Y108D01*
X3086Y108D02*
X3101Y108D01*
X3129Y108D02*
X3144Y108D01*
X3201Y108D02*
X3210Y108D01*
X3242Y108D02*
X3251Y108D01*
X3276Y108D02*
X3286Y108D01*
X3311Y108D02*
X3327Y108D01*
X3352Y108D02*
X3363Y108D01*
X3384Y108D02*
X3402Y108D01*
X3427Y108D02*
X3438Y108D01*
X3464Y108D02*
X3476Y108D01*
X2226Y107D02*
X2244Y107D01*
X2263Y107D02*
X2275Y107D01*
X2314Y107D02*
X2338Y107D01*
X2453Y107D02*
X2463Y107D01*
X2490Y107D02*
X2499Y107D01*
X2526Y107D02*
X2535Y107D01*
X2567Y107D02*
X2576Y107D01*
X2602Y107D02*
X2614Y107D01*
X2633Y107D02*
X2652Y107D01*
X2676Y107D02*
X2685Y107D01*
X2752Y107D02*
X2764Y107D01*
X2827Y107D02*
X2834Y107D01*
X2866Y107D02*
X2876Y107D01*
X2976Y107D02*
X2985Y107D01*
X3017Y107D02*
X3027Y107D01*
X3051Y107D02*
X3061Y107D01*
X3085Y107D02*
X3102Y107D01*
X3130Y107D02*
X3145Y107D01*
X3201Y107D02*
X3210Y107D01*
X3242Y107D02*
X3251Y107D01*
X3276Y107D02*
X3286Y107D01*
X3310Y107D02*
X3327Y107D01*
X3352Y107D02*
X3364Y107D01*
X3383Y107D02*
X3402Y107D01*
X3427Y107D02*
X3439Y107D01*
X3463Y107D02*
X3476Y107D01*
X2226Y106D02*
X2246Y106D01*
X2262Y106D02*
X2275Y106D01*
X2315Y106D02*
X2338Y106D01*
X2452Y106D02*
X2462Y106D01*
X2490Y106D02*
X2500Y106D01*
X2526Y106D02*
X2535Y106D01*
X2567Y106D02*
X2576Y106D01*
X2602Y106D02*
X2616Y106D01*
X2632Y106D02*
X2652Y106D01*
X2676Y106D02*
X2685Y106D01*
X2752Y106D02*
X2766Y106D01*
X2826Y106D02*
X2836Y106D01*
X2865Y106D02*
X2876Y106D01*
X2976Y106D02*
X2985Y106D01*
X3017Y106D02*
X3027Y106D01*
X3051Y106D02*
X3062Y106D01*
X3083Y106D02*
X3102Y106D01*
X3131Y106D02*
X3146Y106D01*
X3201Y106D02*
X3210Y106D01*
X3242Y106D02*
X3252Y106D01*
X3276Y106D02*
X3287Y106D01*
X3308Y106D02*
X3327Y106D01*
X3352Y106D02*
X3366Y106D01*
X3382Y106D02*
X3402Y106D01*
X3427Y106D02*
X3441Y106D01*
X3462Y106D02*
X3475Y106D01*
X2226Y105D02*
X2247Y105D01*
X2260Y105D02*
X2274Y105D01*
X2315Y105D02*
X2337Y105D01*
X2452Y105D02*
X2462Y105D01*
X2490Y105D02*
X2500Y105D01*
X2526Y105D02*
X2535Y105D01*
X2567Y105D02*
X2576Y105D01*
X2603Y105D02*
X2617Y105D01*
X2630Y105D02*
X2652Y105D01*
X2676Y105D02*
X2685Y105D01*
X2753Y105D02*
X2767Y105D01*
X2826Y105D02*
X2838Y105D01*
X2864Y105D02*
X2876Y105D01*
X2976Y105D02*
X2985Y105D01*
X3017Y105D02*
X3027Y105D01*
X3052Y105D02*
X3063Y105D01*
X3081Y105D02*
X3102Y105D01*
X3132Y105D02*
X3147Y105D01*
X3201Y105D02*
X3210Y105D01*
X3242Y105D02*
X3252Y105D01*
X3277Y105D02*
X3288Y105D01*
X3306Y105D02*
X3327Y105D01*
X3353Y105D02*
X3367Y105D01*
X3380Y105D02*
X3402Y105D01*
X3428Y105D02*
X3442Y105D01*
X3461Y105D02*
X3475Y105D01*
X2226Y104D02*
X2274Y104D01*
X2316Y104D02*
X2337Y104D01*
X2452Y104D02*
X2462Y104D01*
X2490Y104D02*
X2500Y104D01*
X2526Y104D02*
X2535Y104D01*
X2567Y104D02*
X2576Y104D01*
X2603Y104D02*
X2652Y104D01*
X2676Y104D02*
X2685Y104D01*
X2753Y104D02*
X2799Y104D01*
X2826Y104D02*
X2875Y104D01*
X2976Y104D02*
X2985Y104D01*
X3017Y104D02*
X3027Y104D01*
X3052Y104D02*
X3102Y104D01*
X3133Y104D02*
X3174Y104D01*
X3201Y104D02*
X3210Y104D01*
X3242Y104D02*
X3252Y104D01*
X3277Y104D02*
X3327Y104D01*
X3354Y104D02*
X3402Y104D01*
X3429Y104D02*
X3474Y104D01*
X2226Y103D02*
X2273Y103D01*
X2316Y103D02*
X2336Y103D01*
X2451Y103D02*
X2461Y103D01*
X2491Y103D02*
X2501Y103D01*
X2526Y103D02*
X2535Y103D01*
X2567Y103D02*
X2576Y103D01*
X2604Y103D02*
X2652Y103D01*
X2676Y103D02*
X2685Y103D01*
X2754Y103D02*
X2800Y103D01*
X2826Y103D02*
X2875Y103D01*
X2976Y103D02*
X2985Y103D01*
X3017Y103D02*
X3027Y103D01*
X3052Y103D02*
X3102Y103D01*
X3134Y103D02*
X3175Y103D01*
X3201Y103D02*
X3210Y103D01*
X3242Y103D02*
X3252Y103D01*
X3277Y103D02*
X3327Y103D01*
X3354Y103D02*
X3402Y103D01*
X3429Y103D02*
X3473Y103D01*
X2226Y102D02*
X2272Y102D01*
X2316Y102D02*
X2336Y102D01*
X2451Y102D02*
X2461Y102D01*
X2491Y102D02*
X2501Y102D01*
X2526Y102D02*
X2535Y102D01*
X2567Y102D02*
X2576Y102D01*
X2605Y102D02*
X2652Y102D01*
X2676Y102D02*
X2685Y102D01*
X2755Y102D02*
X2801Y102D01*
X2826Y102D02*
X2874Y102D01*
X2976Y102D02*
X2985Y102D01*
X3017Y102D02*
X3027Y102D01*
X3053Y102D02*
X3102Y102D01*
X3135Y102D02*
X3176Y102D01*
X3201Y102D02*
X3210Y102D01*
X3242Y102D02*
X3252Y102D01*
X3278Y102D02*
X3327Y102D01*
X3355Y102D02*
X3402Y102D01*
X3430Y102D02*
X3472Y102D01*
X2226Y101D02*
X2271Y101D01*
X2317Y101D02*
X2335Y101D01*
X2451Y101D02*
X2461Y101D01*
X2491Y101D02*
X2501Y101D01*
X2526Y101D02*
X2535Y101D01*
X2567Y101D02*
X2576Y101D01*
X2606Y101D02*
X2652Y101D01*
X2676Y101D02*
X2685Y101D01*
X2756Y101D02*
X2801Y101D01*
X2827Y101D02*
X2874Y101D01*
X2976Y101D02*
X2985Y101D01*
X3017Y101D02*
X3027Y101D01*
X3054Y101D02*
X3102Y101D01*
X3137Y101D02*
X3176Y101D01*
X3201Y101D02*
X3210Y101D01*
X3242Y101D02*
X3252Y101D01*
X3279Y101D02*
X3327Y101D01*
X3356Y101D02*
X3402Y101D01*
X3431Y101D02*
X3471Y101D01*
X2226Y100D02*
X2235Y100D01*
X2237Y100D02*
X2270Y100D01*
X2318Y100D02*
X2335Y100D01*
X2451Y100D02*
X2461Y100D01*
X2492Y100D02*
X2502Y100D01*
X2526Y100D02*
X2535Y100D01*
X2567Y100D02*
X2577Y100D01*
X2607Y100D02*
X2640Y100D01*
X2642Y100D02*
X2652Y100D01*
X2676Y100D02*
X2685Y100D01*
X2757Y100D02*
X2802Y100D01*
X2827Y100D02*
X2873Y100D01*
X2976Y100D02*
X2985Y100D01*
X3017Y100D02*
X3027Y100D01*
X3054Y100D02*
X3102Y100D01*
X3138Y100D02*
X3177Y100D01*
X3201Y100D02*
X3210Y100D01*
X3242Y100D02*
X3252Y100D01*
X3279Y100D02*
X3327Y100D01*
X3357Y100D02*
X3390Y100D01*
X3392Y100D02*
X3402Y100D01*
X3433Y100D02*
X3470Y100D01*
X2226Y99D02*
X2235Y99D01*
X2238Y99D02*
X2269Y99D01*
X2319Y99D02*
X2334Y99D01*
X2450Y99D02*
X2460Y99D01*
X2492Y99D02*
X2502Y99D01*
X2526Y99D02*
X2535Y99D01*
X2567Y99D02*
X2576Y99D01*
X2608Y99D02*
X2639Y99D01*
X2642Y99D02*
X2652Y99D01*
X2676Y99D02*
X2685Y99D01*
X2758Y99D02*
X2802Y99D01*
X2828Y99D02*
X2872Y99D01*
X2976Y99D02*
X2985Y99D01*
X3017Y99D02*
X3027Y99D01*
X3055Y99D02*
X3102Y99D01*
X3139Y99D02*
X3177Y99D01*
X3201Y99D02*
X3210Y99D01*
X3242Y99D02*
X3252Y99D01*
X3280Y99D02*
X3327Y99D01*
X3359Y99D02*
X3389Y99D01*
X3392Y99D02*
X3402Y99D01*
X3434Y99D02*
X3469Y99D01*
X2226Y98D02*
X2235Y98D01*
X2239Y98D02*
X2267Y98D01*
X2323Y98D02*
X2334Y98D01*
X2451Y98D02*
X2460Y98D01*
X2492Y98D02*
X2501Y98D01*
X2526Y98D02*
X2535Y98D01*
X2567Y98D02*
X2576Y98D01*
X2610Y98D02*
X2638Y98D01*
X2642Y98D02*
X2651Y98D01*
X2676Y98D02*
X2685Y98D01*
X2760Y98D02*
X2801Y98D01*
X2830Y98D02*
X2871Y98D01*
X2976Y98D02*
X2985Y98D01*
X3017Y98D02*
X3027Y98D01*
X3056Y98D02*
X3089Y98D01*
X3092Y98D02*
X3102Y98D01*
X3140Y98D02*
X3177Y98D01*
X3201Y98D02*
X3210Y98D01*
X3243Y98D02*
X3251Y98D01*
X3281Y98D02*
X3314Y98D01*
X3318Y98D02*
X3327Y98D01*
X3360Y98D02*
X3388Y98D01*
X3393Y98D02*
X3402Y98D01*
X3435Y98D02*
X3468Y98D01*
X2226Y97D02*
X2235Y97D01*
X2241Y97D02*
X2266Y97D01*
X2323Y97D02*
X2334Y97D01*
X2451Y97D02*
X2460Y97D01*
X2493Y97D02*
X2501Y97D01*
X2526Y97D02*
X2535Y97D01*
X2568Y97D02*
X2576Y97D01*
X2611Y97D02*
X2636Y97D01*
X2643Y97D02*
X2651Y97D01*
X2676Y97D02*
X2685Y97D01*
X2761Y97D02*
X2801Y97D01*
X2831Y97D02*
X2870Y97D01*
X2976Y97D02*
X2985Y97D01*
X3018Y97D02*
X3026Y97D01*
X3057Y97D02*
X3087Y97D01*
X3093Y97D02*
X3101Y97D01*
X3141Y97D02*
X3176Y97D01*
X3202Y97D02*
X3210Y97D01*
X3243Y97D02*
X3251Y97D01*
X3282Y97D02*
X3313Y97D01*
X3318Y97D02*
X3326Y97D01*
X3361Y97D02*
X3387Y97D01*
X3393Y97D02*
X3401Y97D01*
X3436Y97D02*
X3467Y97D01*
X2227Y96D02*
X2234Y96D01*
X2243Y96D02*
X2265Y96D01*
X2323Y96D02*
X2333Y96D01*
X2452Y96D02*
X2459Y96D01*
X2493Y96D02*
X2500Y96D01*
X2527Y96D02*
X2534Y96D01*
X2568Y96D02*
X2575Y96D01*
X2612Y96D02*
X2635Y96D01*
X2643Y96D02*
X2650Y96D01*
X2677Y96D02*
X2684Y96D01*
X2763Y96D02*
X2800Y96D01*
X2833Y96D02*
X2868Y96D01*
X2977Y96D02*
X2984Y96D01*
X3018Y96D02*
X3026Y96D01*
X3059Y96D02*
X3086Y96D01*
X3093Y96D02*
X3101Y96D01*
X3143Y96D02*
X3176Y96D01*
X3202Y96D02*
X3209Y96D01*
X3244Y96D02*
X3251Y96D01*
X3284Y96D02*
X3311Y96D01*
X3319Y96D02*
X3326Y96D01*
X3363Y96D02*
X3385Y96D01*
X3394Y96D02*
X3401Y96D01*
X3438Y96D02*
X3465Y96D01*
X2228Y95D02*
X2233Y95D01*
X2245Y95D02*
X2263Y95D01*
X2322Y95D02*
X2333Y95D01*
X2453Y95D02*
X2458Y95D01*
X2494Y95D02*
X2499Y95D01*
X2528Y95D02*
X2533Y95D01*
X2569Y95D02*
X2574Y95D01*
X2615Y95D02*
X2632Y95D01*
X2644Y95D02*
X2649Y95D01*
X2678Y95D02*
X2683Y95D01*
X2765Y95D02*
X2799Y95D01*
X2836Y95D02*
X2866Y95D01*
X2978Y95D02*
X2983Y95D01*
X3020Y95D02*
X3024Y95D01*
X3061Y95D02*
X3084Y95D01*
X3095Y95D02*
X3099Y95D01*
X3145Y95D02*
X3174Y95D01*
X3203Y95D02*
X3208Y95D01*
X3245Y95D02*
X3249Y95D01*
X3286Y95D02*
X3309Y95D01*
X3320Y95D02*
X3324Y95D01*
X3365Y95D02*
X3383Y95D01*
X3395Y95D02*
X3400Y95D01*
X3440Y95D02*
X3463Y95D01*
X2250Y94D02*
X2257Y94D01*
X2322Y94D02*
X2332Y94D01*
X2620Y94D02*
X2627Y94D01*
X2770Y94D02*
X2796Y94D01*
X2842Y94D02*
X2861Y94D01*
X3066Y94D02*
X3081Y94D01*
X3150Y94D02*
X3171Y94D01*
X3291Y94D02*
X3306Y94D01*
X3370Y94D02*
X3377Y94D01*
X3445Y94D02*
X3458Y94D01*
X2321Y93D02*
X2332Y93D01*
X2321Y92D02*
X2331Y92D01*
X2320Y91D02*
X2331Y91D01*
X2320Y90D02*
X2331Y90D01*
X2319Y89D02*
X2330Y89D01*
X2319Y88D02*
X2330Y88D01*
X2319Y87D02*
X2329Y87D01*
X2318Y86D02*
X2329Y86D01*
X2318Y85D02*
X2328Y85D01*
X2317Y84D02*
X2328Y84D01*
X2317Y83D02*
X2327Y83D01*
X2304Y82D02*
X2327Y82D01*
X2302Y81D02*
X2327Y81D01*
X2302Y80D02*
X2326Y80D01*
X2301Y79D02*
X2326Y79D01*
X2301Y78D02*
X2325Y78D01*
X2301Y77D02*
X2325Y77D01*
X2301Y76D02*
X2324Y76D01*
X2301Y75D02*
X2324Y75D01*
X2302Y74D02*
X2323Y74D01*
X2303Y73D02*
X2322Y73D01*
X2305Y72D02*
X2320Y72D01*
D02*
G04 End of Copper1*
M02*