; NON-PLATED HOLES START AT T1
; THROUGH (PLATED) HOLES START AT T100
M48
INCH
T100C0.023622
T101C0.040000
T102C0.098425
T103C0.038000
T104C0.039370
T105C0.027559
T106C0.015748
%
T100
X002336Y021681
X002336Y018846
T101
X013884Y010014
X004334Y009664
X017884Y019014
X008884Y014514
X013884Y012014
X017884Y020014
X004884Y014514
X005884Y008514
X013884Y014014
X017884Y023014
X013884Y011014
X017884Y018014
X006884Y008514
X017884Y022014
X010884Y008514
X012884Y014514
X001884Y008514
X017884Y021014
X013884Y013014
X002884Y014514
X002884Y008514
X007884Y008514
X009884Y014514
X009884Y008514
X003884Y014514
X006884Y014514
X005884Y014514
X013884Y009014
X010884Y014514
X011884Y014514
X005334Y009664
X007884Y014514
X012884Y008514
X008434Y009664
X001884Y014514
X004884Y008514
X008884Y008514
X009434Y009664
X003884Y008514
X011884Y008514
T102
X002384Y023014
X008384Y023014
X008384Y017514
X002384Y017514
T103
X021276Y009014
X003884Y005014
X010884Y005014
X013884Y005014
X007884Y005014
X021276Y012014
X002884Y005014
X001884Y005014
X030884Y015014
X022884Y015014
X028884Y015014
X023884Y015014
X011884Y005014
X012884Y005014
X031884Y015014
X027884Y015014
X029884Y015014
X026884Y015014
X004884Y005014
X021276Y014014
X005884Y005014
X021276Y010014
X021276Y013014
X006884Y005014
X021276Y011014
X008884Y005014
T104
X003884Y023014
X006884Y023014
X004884Y023014
X005884Y023014
T105
X003438Y018964
X003438Y021563
T106
X015884Y019014
X015884Y017014
X008886Y007001
X016901Y006022
X005900Y015412
X012884Y003014
X014884Y015014
X019872Y006022
X018879Y013014
T00
M30
