; NON-PLATED HOLES START AT T1
; THROUGH (PLATED) HOLES START AT T100
M48
INCH
T100C0.023622
T101C0.040000
T102C0.098425
T103C0.038000
T104C0.039370
T105C0.027559
T106C0.015748
%
T100
X002336Y019644
X002336Y016809
T101
X006884Y006476
X005334Y007626
X002884Y006476
X005884Y012476
X001884Y006476
X001884Y012476
X008884Y006476
X009884Y006476
X017884Y016976
X011884Y012476
X003884Y006476
X013884Y009976
X017884Y019976
X008434Y007626
X013884Y007976
X007884Y012476
X013884Y006976
X004884Y012476
X012884Y006476
X013884Y008976
X005884Y006476
X009434Y007626
X007884Y006476
X002884Y012476
X017884Y020976
X017884Y018976
X010884Y012476
X003884Y012476
X010884Y006476
X017884Y015976
X017884Y017976
X006884Y012476
X004884Y006476
X011884Y006476
X004334Y007626
X008884Y012476
X012884Y012476
X013884Y011976
X009884Y012476
X013884Y010976
T102
X002384Y020976
X002384Y015476
X008384Y020976
X008384Y015476
T103
X003884Y002976
X031884Y012976
X008884Y002976
X026884Y012976
X011884Y002976
X030884Y012976
X007884Y002976
X021336Y011976
X010884Y002976
X001884Y002976
X013884Y002976
X029884Y012976
X021336Y007976
X021336Y006976
X021336Y008976
X028884Y012976
X002884Y002976
X006884Y002976
X012884Y002976
X021336Y009976
X027884Y012976
X022884Y012976
X021336Y010976
X005884Y002976
X023884Y012976
X004884Y002976
T104
X005884Y020976
X004884Y020976
X003884Y020976
X006884Y020976
T105
X003438Y016927
X003438Y019526
T106
X012884Y000976
X018879Y010977
X005900Y013375
X008886Y004964
X014884Y012976
X016901Y003984
X019872Y003984
X015884Y014976
X015884Y016976
T00
M30
