G04 MADE WITH FRITZING*
G04 WWW.FRITZING.ORG*
G04 DOUBLE SIDED*
G04 HOLES PLATED*
G04 CONTOUR ON CENTER OF CONTOUR VECTOR*
%ASAXBY*%
%FSLAX23Y23*%
%MOIN*%
%OFA0B0*%
%SFA1.0B1.0*%
%ADD10C,0.088000*%
%ADD11C,0.049370*%
%ADD12C,0.084000*%
%ADD13C,0.148425*%
%ADD14C,0.108425*%
%ADD15C,0.080000*%
%ADD16C,0.057559*%
%ADD17R,0.108425X0.108425*%
%ADD18R,0.001000X0.001000*%
%LNMASK1*%
G90*
G70*
G54D10*
X1088Y501D03*
X1188Y501D03*
X1288Y501D03*
X1388Y501D03*
G54D11*
X1588Y1901D03*
X1588Y1701D03*
G54D12*
X1788Y1801D03*
X1788Y1901D03*
X1788Y2001D03*
X1788Y2101D03*
X1788Y2201D03*
X1788Y2301D03*
X1388Y901D03*
X1388Y1001D03*
X1388Y1101D03*
X1388Y1201D03*
X1388Y1301D03*
X1388Y1401D03*
X843Y966D03*
X943Y966D03*
X433Y966D03*
X533Y966D03*
X1288Y851D03*
X1188Y851D03*
X1088Y851D03*
X988Y851D03*
X888Y851D03*
X788Y851D03*
X688Y851D03*
X588Y851D03*
X488Y851D03*
X388Y851D03*
X288Y851D03*
X188Y851D03*
X188Y1451D03*
X288Y1451D03*
X388Y1451D03*
X488Y1451D03*
X588Y1451D03*
X688Y1451D03*
X788Y1451D03*
X888Y1451D03*
X988Y1451D03*
X1088Y1451D03*
X1188Y1451D03*
X1288Y1451D03*
G54D13*
X838Y2301D03*
G54D14*
X234Y2168D03*
G54D13*
X238Y2301D03*
G54D15*
X688Y2301D03*
G54D16*
X344Y2156D03*
G54D15*
X588Y2301D03*
X388Y2301D03*
X488Y2301D03*
G54D13*
X838Y1751D03*
X238Y1751D03*
G54D16*
X344Y1896D03*
G54D14*
X234Y1885D03*
G54D10*
X2388Y1501D03*
X2288Y1501D03*
X2388Y1501D03*
X2288Y1501D03*
X2688Y1501D03*
X2788Y1501D03*
X2888Y1501D03*
X2988Y1501D03*
X3088Y1501D03*
X3188Y1501D03*
X2688Y1501D03*
X2788Y1501D03*
X2888Y1501D03*
X2988Y1501D03*
X3088Y1501D03*
X3188Y1501D03*
G54D11*
X1488Y1501D03*
X1888Y1301D03*
X1288Y301D03*
G54D10*
X188Y501D03*
X288Y501D03*
X388Y501D03*
X488Y501D03*
X588Y501D03*
X688Y501D03*
X788Y501D03*
X888Y501D03*
G54D11*
X1987Y602D03*
X1690Y602D03*
X889Y700D03*
X590Y1541D03*
G54D10*
X2128Y1401D03*
X2128Y1301D03*
X2128Y1201D03*
X2128Y1101D03*
X2128Y1001D03*
X2128Y901D03*
G54D17*
X234Y2168D03*
X234Y1885D03*
G54D18*
X320Y2199D02*
X367Y2199D01*
X320Y2198D02*
X367Y2198D01*
X320Y2197D02*
X367Y2197D01*
X320Y2196D02*
X367Y2196D01*
X320Y2195D02*
X367Y2195D01*
X320Y2194D02*
X367Y2194D01*
X320Y2193D02*
X367Y2193D01*
X320Y2192D02*
X367Y2192D01*
X320Y2191D02*
X367Y2191D01*
X320Y2190D02*
X367Y2190D01*
X320Y2189D02*
X367Y2189D01*
X320Y2188D02*
X367Y2188D01*
X320Y2187D02*
X367Y2187D01*
X320Y2186D02*
X367Y2186D01*
X320Y2185D02*
X367Y2185D01*
X320Y2184D02*
X367Y2184D01*
X320Y2183D02*
X367Y2183D01*
X320Y2182D02*
X367Y2182D01*
X320Y2181D02*
X367Y2181D01*
X320Y2180D02*
X367Y2180D01*
X320Y2179D02*
X367Y2179D01*
X320Y2178D02*
X367Y2178D01*
X320Y2177D02*
X367Y2177D01*
X320Y2176D02*
X367Y2176D01*
X320Y2175D02*
X367Y2175D01*
X320Y2174D02*
X367Y2174D01*
X320Y2173D02*
X367Y2173D01*
X320Y2172D02*
X367Y2172D01*
X320Y2171D02*
X367Y2171D01*
X320Y2170D02*
X339Y2170D01*
X348Y2170D02*
X367Y2170D01*
X320Y2169D02*
X336Y2169D01*
X350Y2169D02*
X367Y2169D01*
X320Y2168D02*
X335Y2168D01*
X352Y2168D02*
X367Y2168D01*
X320Y2167D02*
X334Y2167D01*
X353Y2167D02*
X367Y2167D01*
X320Y2166D02*
X333Y2166D01*
X354Y2166D02*
X367Y2166D01*
X320Y2165D02*
X332Y2165D01*
X355Y2165D02*
X367Y2165D01*
X320Y2164D02*
X331Y2164D01*
X356Y2164D02*
X367Y2164D01*
X320Y2163D02*
X330Y2163D01*
X356Y2163D02*
X367Y2163D01*
X320Y2162D02*
X330Y2162D01*
X357Y2162D02*
X367Y2162D01*
X320Y2161D02*
X330Y2161D01*
X357Y2161D02*
X367Y2161D01*
X320Y2160D02*
X329Y2160D01*
X357Y2160D02*
X367Y2160D01*
X320Y2159D02*
X329Y2159D01*
X357Y2159D02*
X367Y2159D01*
X320Y2158D02*
X329Y2158D01*
X357Y2158D02*
X367Y2158D01*
X320Y2157D02*
X329Y2157D01*
X357Y2157D02*
X367Y2157D01*
X320Y2156D02*
X329Y2156D01*
X357Y2156D02*
X367Y2156D01*
X320Y2155D02*
X329Y2155D01*
X357Y2155D02*
X367Y2155D01*
X320Y2154D02*
X329Y2154D01*
X357Y2154D02*
X367Y2154D01*
X320Y2153D02*
X330Y2153D01*
X357Y2153D02*
X367Y2153D01*
X320Y2152D02*
X330Y2152D01*
X357Y2152D02*
X367Y2152D01*
X320Y2151D02*
X330Y2151D01*
X356Y2151D02*
X367Y2151D01*
X320Y2150D02*
X331Y2150D01*
X356Y2150D02*
X367Y2150D01*
X320Y2149D02*
X331Y2149D01*
X355Y2149D02*
X367Y2149D01*
X320Y2148D02*
X332Y2148D01*
X354Y2148D02*
X367Y2148D01*
X320Y2147D02*
X333Y2147D01*
X353Y2147D02*
X367Y2147D01*
X320Y2146D02*
X334Y2146D01*
X352Y2146D02*
X367Y2146D01*
X320Y2145D02*
X336Y2145D01*
X351Y2145D02*
X367Y2145D01*
X320Y2144D02*
X338Y2144D01*
X349Y2144D02*
X367Y2144D01*
X320Y2143D02*
X367Y2143D01*
X320Y2142D02*
X367Y2142D01*
X320Y2141D02*
X367Y2141D01*
X320Y2140D02*
X367Y2140D01*
X320Y2139D02*
X367Y2139D01*
X320Y2138D02*
X367Y2138D01*
X320Y2137D02*
X367Y2137D01*
X320Y2136D02*
X367Y2136D01*
X320Y2135D02*
X367Y2135D01*
X320Y2134D02*
X367Y2134D01*
X340Y2133D02*
X347Y2133D01*
X343Y1921D02*
X344Y1921D01*
X320Y1920D02*
X367Y1920D01*
X320Y1919D02*
X367Y1919D01*
X320Y1918D02*
X367Y1918D01*
X320Y1917D02*
X367Y1917D01*
X320Y1916D02*
X367Y1916D01*
X320Y1915D02*
X367Y1915D01*
X320Y1914D02*
X367Y1914D01*
X320Y1913D02*
X367Y1913D01*
X320Y1912D02*
X367Y1912D01*
X320Y1911D02*
X367Y1911D01*
X320Y1910D02*
X338Y1910D01*
X348Y1910D02*
X367Y1910D01*
X320Y1909D02*
X336Y1909D01*
X351Y1909D02*
X367Y1909D01*
X320Y1908D02*
X335Y1908D01*
X352Y1908D02*
X367Y1908D01*
X320Y1907D02*
X333Y1907D01*
X353Y1907D02*
X367Y1907D01*
X320Y1906D02*
X332Y1906D01*
X354Y1906D02*
X367Y1906D01*
X320Y1905D02*
X332Y1905D01*
X355Y1905D02*
X367Y1905D01*
X320Y1904D02*
X331Y1904D01*
X356Y1904D02*
X367Y1904D01*
X320Y1903D02*
X330Y1903D01*
X356Y1903D02*
X367Y1903D01*
X320Y1902D02*
X330Y1902D01*
X357Y1902D02*
X367Y1902D01*
X320Y1901D02*
X330Y1901D01*
X357Y1901D02*
X367Y1901D01*
X320Y1900D02*
X329Y1900D01*
X357Y1900D02*
X367Y1900D01*
X320Y1899D02*
X329Y1899D01*
X357Y1899D02*
X367Y1899D01*
X320Y1898D02*
X329Y1898D01*
X357Y1898D02*
X367Y1898D01*
X320Y1897D02*
X329Y1897D01*
X357Y1897D02*
X367Y1897D01*
X320Y1896D02*
X329Y1896D01*
X357Y1896D02*
X367Y1896D01*
X320Y1895D02*
X329Y1895D01*
X357Y1895D02*
X367Y1895D01*
X320Y1894D02*
X329Y1894D01*
X357Y1894D02*
X367Y1894D01*
X320Y1893D02*
X330Y1893D01*
X357Y1893D02*
X367Y1893D01*
X320Y1892D02*
X330Y1892D01*
X357Y1892D02*
X367Y1892D01*
X320Y1891D02*
X330Y1891D01*
X356Y1891D02*
X367Y1891D01*
X320Y1890D02*
X331Y1890D01*
X356Y1890D02*
X367Y1890D01*
X320Y1889D02*
X332Y1889D01*
X355Y1889D02*
X367Y1889D01*
X320Y1888D02*
X332Y1888D01*
X354Y1888D02*
X367Y1888D01*
X320Y1887D02*
X333Y1887D01*
X353Y1887D02*
X367Y1887D01*
X320Y1886D02*
X335Y1886D01*
X352Y1886D02*
X367Y1886D01*
X320Y1885D02*
X336Y1885D01*
X351Y1885D02*
X367Y1885D01*
X320Y1884D02*
X338Y1884D01*
X349Y1884D02*
X367Y1884D01*
X320Y1883D02*
X367Y1883D01*
X320Y1882D02*
X367Y1882D01*
X320Y1881D02*
X367Y1881D01*
X320Y1880D02*
X367Y1880D01*
X320Y1879D02*
X367Y1879D01*
X320Y1878D02*
X367Y1878D01*
X320Y1877D02*
X367Y1877D01*
X320Y1876D02*
X367Y1876D01*
X320Y1875D02*
X367Y1875D01*
X320Y1874D02*
X367Y1874D01*
X320Y1873D02*
X367Y1873D01*
X320Y1872D02*
X367Y1872D01*
X320Y1871D02*
X367Y1871D01*
X320Y1870D02*
X367Y1870D01*
X320Y1869D02*
X367Y1869D01*
X320Y1868D02*
X367Y1868D01*
X320Y1867D02*
X367Y1867D01*
X320Y1866D02*
X367Y1866D01*
X320Y1865D02*
X367Y1865D01*
X320Y1864D02*
X367Y1864D01*
X320Y1863D02*
X367Y1863D01*
X320Y1862D02*
X367Y1862D01*
X320Y1861D02*
X367Y1861D01*
X320Y1860D02*
X367Y1860D01*
X320Y1859D02*
X367Y1859D01*
X320Y1858D02*
X367Y1858D01*
X320Y1857D02*
X367Y1857D01*
X320Y1856D02*
X367Y1856D01*
X320Y1855D02*
X367Y1855D01*
D02*
G04 End of Mask1*
M02*